<svg width="24" height="11" viewBox="0 0 24 11" fill="none" xmlns="http://www.w3.org/2000/svg">
<path d="M0.194336 0.562378H3.41507C6.09161 0.562378 7.37942 2.33145 7.37942 5.50158C7.37942 8.67171 6.08758 10.44 3.41507 10.44H0.194336V0.562378ZM3.27216 8.7691C4.54543 8.7691 5.11789 7.93406 5.11789 6.39171V4.59389C5.11789 3.06591 4.54543 2.23087 3.27216 2.23087H2.31297V8.7691H3.27216Z" fill="#D25B73"/>
<path d="M9.01123 10.4384V0.561584H15.3946V2.30192H11.1581V4.56595H15.2516V6.30629H11.1581V8.69805H15.3946V10.4384H9.01123Z" fill="#D87168"/>
<path d="M17.5596 10.4384V8.8681H19.7065V2.13188H17.5596V0.561584H24.0002V2.13188H21.8533V8.8681H24.0002V10.4384H17.5596Z" fill="#DE8E5A"/>
</svg>
