;<svg width="13" height="11" viewBox="0 0 13 11" fill="none" xmlns="http://www.w3.org/2000/svg">
  <path
    d="M0.182692 6.42071C0.283589 6.42071 0.365383 6.33892 0.365383 6.23802C0.365383 6.13712 0.283589 6.05533 0.182692 6.05533C0.0817938 6.05533 0 6.13712 0 6.23802C0 6.33892 0.0817938 6.42071 0.182692 6.42071Z"
    fill="#EFEFEF"
    fillOpacity="0.5"
  />
  <path
    d="M2.72261 6.19989C2.82351 6.19989 2.9053 6.11809 2.9053 6.01719C2.9053 5.9163 2.82351 5.8345 2.72261 5.8345C2.62171 5.8345 2.53992 5.9163 2.53992 6.01719C2.53992 6.11809 2.62171 6.19989 2.72261 6.19989Z"
    fill="#EFEFEF"
    fillOpacity="0.5"
  />
  <path
    d="M3.45637 7.24575C3.55727 7.24575 3.63906 7.16396 3.63906 7.06306C3.63906 6.96216 3.55727 6.88037 3.45637 6.88037C3.35547 6.88037 3.27368 6.96216 3.27368 7.06306C3.27368 7.16396 3.35547 7.24575 3.45637 7.24575Z"
    fill="#EFEFEF"
    fillOpacity="0.5"
  />
  <path
    d="M5.62227 6.47958C5.72316 6.47958 5.80496 6.39779 5.80496 6.29689C5.80496 6.19599 5.72316 6.1142 5.62227 6.1142C5.52137 6.1142 5.43958 6.19599 5.43958 6.29689C5.43958 6.39779 5.52137 6.47958 5.62227 6.47958Z"
    fill="#EFEFEF"
    fillOpacity="0.5"
  />
  <path
    d="M0.330275 0.848568C0.431172 0.848568 0.512966 0.766774 0.512966 0.665877C0.512966 0.564979 0.431172 0.483185 0.330275 0.483185C0.229377 0.483185 0.147583 0.564979 0.147583 0.665877C0.147583 0.766774 0.229377 0.848568 0.330275 0.848568Z"
    fill="#EFEFEF"
    fillOpacity="0.5"
  />
  <path
    d="M0.521769 3.15883C0.677998 3.15883 0.804646 3.03218 0.804646 2.87596C0.804646 2.71973 0.677998 2.59308 0.521769 2.59308C0.36554 2.59308 0.238892 2.71973 0.238892 2.87596C0.238892 3.03218 0.36554 3.15883 0.521769 3.15883Z"
    fill="#EFEFEF"
    fillOpacity="0.5"
  />
  <path
    d="M5.11842 5.81073C5.24861 5.81073 5.35415 5.70519 5.35415 5.575C5.35415 5.4448 5.24861 5.33926 5.11842 5.33926C4.98823 5.33926 4.88269 5.4448 4.88269 5.575C4.88269 5.70519 4.98823 5.81073 5.11842 5.81073Z"
    fill="#EFEFEF"
    fillOpacity="0.5"
  />
  <path
    d="M0.365492 8.68383C0.495683 8.68383 0.601223 8.57829 0.601223 8.4481C0.601223 8.31791 0.495683 8.21237 0.365492 8.21237C0.235301 8.21237 0.129761 8.31791 0.129761 8.4481C0.129761 8.57829 0.235301 8.68383 0.365492 8.68383Z"
    fill="#EFEFEF"
    fillOpacity="0.5"
  />
  <path
    d="M2.18032 7.43139C2.32353 7.43139 2.43963 7.31529 2.43963 7.17208C2.43963 7.02887 2.32353 6.91278 2.18032 6.91278C2.03712 6.91278 1.92102 7.02887 1.92102 7.17208C1.92102 7.31529 2.03712 7.43139 2.18032 7.43139Z"
    fill="#EFEFEF"
    fillOpacity="0.5"
  />
  <path
    d="M4.92386 9.41464C5.06707 9.41464 5.18316 9.29854 5.18316 9.15533C5.18316 9.01212 5.06707 8.89603 4.92386 8.89603C4.78065 8.89603 4.66455 9.01212 4.66455 9.15533C4.66455 9.29854 4.78065 9.41464 4.92386 9.41464Z"
    fill="#EFEFEF"
    fillOpacity="0.5"
  />
  <path
    d="M4.18722 8.31536C4.30114 8.31536 4.39349 8.22301 4.39349 8.1091C4.39349 7.99518 4.30114 7.90283 4.18722 7.90283C4.0733 7.90283 3.98096 7.99518 3.98096 8.1091C3.98096 8.22301 4.0733 8.31536 4.18722 8.31536Z"
    fill="#EFEFEF"
    fillOpacity="0.5"
  />
  <path
    d="M1.10224 9.80925C1.27312 9.80925 1.41164 9.67073 1.41164 9.49986C1.41164 9.32898 1.27312 9.19046 1.10224 9.19046C0.931369 9.19046 0.792847 9.32898 0.792847 9.49986C0.792847 9.67073 0.931369 9.80925 1.10224 9.80925Z"
    fill="#EFEFEF"
    fillOpacity="0.5"
  />
  <path
    d="M2.33671 2.15106C2.59872 2.15106 2.81112 1.93866 2.81112 1.67665C2.81112 1.41464 2.59872 1.20224 2.33671 1.20224C2.07471 1.20224 1.8623 1.41464 1.8623 1.67665C1.8623 1.93866 2.07471 2.15106 2.33671 2.15106Z"
    fill="#EFEFEF"
    fillOpacity="0.5"
  />
  <path
    d="M1.59734 1.03722C1.88376 1.03722 2.11595 0.805028 2.11595 0.518609C2.11595 0.232189 1.88376 0 1.59734 0C1.31092 0 1.07874 0.232189 1.07874 0.518609C1.07874 0.805028 1.31092 1.03722 1.59734 1.03722Z"
    fill="#EFEFEF"
    fillOpacity="0.5"
  />
  <path
    d="M1.78869 3.31789C2.03443 3.31789 2.23364 3.11869 2.23364 2.87295C2.23364 2.62722 2.03443 2.42801 1.78869 2.42801C1.54296 2.42801 1.34375 2.62722 1.34375 2.87295C1.34375 3.11869 1.54296 3.31789 1.78869 3.31789Z"
    fill="#EFEFEF"
    fillOpacity="0.5"
  />
  <path
    d="M3.07044 3.12059C3.3292 3.12059 3.53896 2.91083 3.53896 2.65208C3.53896 2.39332 3.3292 2.18356 3.07044 2.18356C2.81169 2.18356 2.60193 2.39332 2.60193 2.65208C2.60193 2.91083 2.81169 3.12059 3.07044 3.12059Z"
    fill="#EFEFEF"
    fillOpacity="0.5"
  />
  <path
    d="M1.25831 4.36389C1.50568 4.36389 1.7062 4.16336 1.7062 3.916C1.7062 3.66864 1.50568 3.46811 1.25831 3.46811C1.01095 3.46811 0.810425 3.66864 0.810425 3.916C0.810425 4.16336 1.01095 4.36389 1.25831 4.36389Z"
    fill="#EFEFEF"
    fillOpacity="0.5"
  />
  <path
    d="M2.52846 4.23722C2.76443 4.23722 2.95572 4.04592 2.95572 3.80995C2.95572 3.57398 2.76443 3.38269 2.52846 3.38269C2.29249 3.38269 2.1012 3.57398 2.1012 3.80995C2.1012 4.04592 2.29249 4.23722 2.52846 4.23722Z"
    fill="#EFEFEF"
    fillOpacity="0.5"
  />
  <path
    d="M3.80695 4.06927C4.012 4.06927 4.17822 3.90305 4.17822 3.698C4.17822 3.49295 4.012 3.32672 3.80695 3.32672C3.6019 3.32672 3.43567 3.49295 3.43567 3.698C3.43567 3.90305 3.6019 4.06927 3.80695 4.06927Z"
    fill="#EFEFEF"
    fillOpacity="0.5"
  />
  <path
    d="M3.26495 5.23016C3.47 5.23016 3.63623 5.06394 3.63623 4.85889C3.63623 4.65384 3.47 4.48761 3.26495 4.48761C3.0599 4.48761 2.89368 4.65384 2.89368 4.85889C2.89368 5.06394 3.0599 5.23016 3.26495 5.23016Z"
    fill="#EFEFEF"
    fillOpacity="0.5"
  />
  <path
    d="M1.98602 5.34219C2.19107 5.34219 2.3573 5.17597 2.3573 4.97092C2.3573 4.76587 2.19107 4.59964 1.98602 4.59964C1.78097 4.59964 1.61475 4.76587 1.61475 4.97092C1.61475 5.17597 1.78097 5.34219 1.98602 5.34219Z"
    fill="#EFEFEF"
    fillOpacity="0.5"
  />
  <path
    d="M1.44678 6.54727C1.68112 6.54727 1.87109 6.3573 1.87109 6.12296C1.87109 5.88861 1.68112 5.69864 1.44678 5.69864C1.21243 5.69864 1.02246 5.88861 1.02246 6.12296C1.02246 6.3573 1.21243 6.54727 1.44678 6.54727Z"
    fill="#EFEFEF"
    fillOpacity="0.5"
  />
  <path
    d="M0.907566 7.65818C1.11587 7.65818 1.28474 7.48931 1.28474 7.28101C1.28474 7.0727 1.11587 6.90384 0.907566 6.90384C0.69926 6.90384 0.530396 7.0727 0.530396 7.28101C0.530396 7.48931 0.69926 7.65818 0.907566 7.65818Z"
    fill="#EFEFEF"
    fillOpacity="0.5"
  />
  <path
    d="M4.72911 7.36663C4.96182 7.36663 5.15048 7.17798 5.15048 6.94526C5.15048 6.71255 4.96182 6.5239 4.72911 6.5239C4.49639 6.5239 4.30774 6.71255 4.30774 6.94526C4.30774 7.17798 4.49639 7.36663 4.72911 7.36663Z"
    fill="#EFEFEF"
    fillOpacity="0.5"
  />
  <path
    d="M3.98987 6.32919C4.22421 6.32919 4.41418 6.13922 4.41418 5.90488C4.41418 5.67053 4.22421 5.48056 3.98987 5.48056C3.75552 5.48056 3.56555 5.67053 3.56555 5.90488C3.56555 6.13922 3.75552 6.32919 3.98987 6.32919Z"
    fill="#EFEFEF"
    fillOpacity="0.5"
  />
  <path
    d="M1.63855 8.76041C1.87289 8.76041 2.06287 8.57043 2.06287 8.33609C2.06287 8.10175 1.87289 7.91177 1.63855 7.91177C1.40421 7.91177 1.21423 8.10175 1.21423 8.33609C1.21423 8.57043 1.40421 8.76041 1.63855 8.76041Z"
    fill="#EFEFEF"
    fillOpacity="0.5"
  />
  <path
    d="M0.704329 5.39544C0.878459 5.39544 1.01962 5.25428 1.01962 5.08015C1.01962 4.90602 0.878459 4.76486 0.704329 4.76486C0.530198 4.76486 0.389038 4.90602 0.389038 5.08015C0.389038 5.25428 0.530198 5.39544 0.704329 5.39544Z"
    fill="#EFEFEF"
    fillOpacity="0.5"
  />
  <path
    d="M4.54075 5.05938C4.71488 5.05938 4.85604 4.91822 4.85604 4.74409C4.85604 4.56996 4.71488 4.4288 4.54075 4.4288C4.36662 4.4288 4.22546 4.56996 4.22546 4.74409C4.22546 4.91822 4.36662 5.05938 4.54075 5.05938Z"
    fill="#EFEFEF"
    fillOpacity="0.5"
  />
  <path
    d="M1.06398 2.18041C1.32273 2.18041 1.53249 1.97065 1.53249 1.71189C1.53249 1.45314 1.32273 1.24338 1.06398 1.24338C0.805221 1.24338 0.595459 1.45314 0.595459 1.71189C0.595459 1.97065 0.805221 2.18041 1.06398 2.18041Z"
    fill="#EFEFEF"
    fillOpacity="0.5"
  />
  <path
    d="M6.1438 7.36658C6.31956 7.36658 6.46204 7.2241 6.46204 7.04834C6.46204 6.87258 6.31956 6.7301 6.1438 6.7301C5.96804 6.7301 5.82556 6.87258 5.82556 7.04834C5.82556 7.2241 5.96804 7.36658 6.1438 7.36658Z"
    fill="#EFEFEF"
    fillOpacity="0.5"
  />
  <path
    d="M12.2078 6.42071C12.3087 6.42071 12.3905 6.33892 12.3905 6.23802C12.3905 6.13712 12.3087 6.05533 12.2078 6.05533C12.1069 6.05533 12.0251 6.13712 12.0251 6.23802C12.0251 6.33892 12.1069 6.42071 12.2078 6.42071Z"
    fill="#EFEFEF"
    fillOpacity="0.5"
  />
  <path
    d="M9.66511 6.19989C9.76601 6.19989 9.84781 6.11809 9.84781 6.01719C9.84781 5.9163 9.76601 5.8345 9.66511 5.8345C9.56422 5.8345 9.48242 5.9163 9.48242 6.01719C9.48242 6.11809 9.56422 6.19989 9.66511 6.19989Z"
    fill="#EFEFEF"
    fillOpacity="0.5"
  />
  <path
    d="M8.93428 7.24575C9.03518 7.24575 9.11697 7.16396 9.11697 7.06306C9.11697 6.96216 9.03518 6.88037 8.93428 6.88037C8.83338 6.88037 8.75159 6.96216 8.75159 7.06306C8.75159 7.16396 8.83338 7.24575 8.93428 7.24575Z"
    fill="#EFEFEF"
    fillOpacity="0.5"
  />
  <path
    d="M6.76826 6.47958C6.86916 6.47958 6.95095 6.39779 6.95095 6.29689C6.95095 6.19599 6.86916 6.1142 6.76826 6.1142C6.66737 6.1142 6.58557 6.19599 6.58557 6.29689C6.58557 6.39779 6.66737 6.47958 6.76826 6.47958Z"
    fill="#EFEFEF"
    fillOpacity="0.5"
  />
  <path
    d="M12.0607 0.848568C12.1616 0.848568 12.2434 0.766774 12.2434 0.665877C12.2434 0.564979 12.1616 0.483185 12.0607 0.483185C11.9598 0.483185 11.8781 0.564979 11.8781 0.665877C11.8781 0.766774 11.9598 0.848568 12.0607 0.848568Z"
    fill="#EFEFEF"
    fillOpacity="0.5"
  />
  <path
    d="M11.8691 3.15883C12.0253 3.15883 12.1519 3.03218 12.1519 2.87596C12.1519 2.71973 12.0253 2.59308 11.8691 2.59308C11.7128 2.59308 11.5862 2.71973 11.5862 2.87596C11.5862 3.03218 11.7128 3.15883 11.8691 3.15883Z"
    fill="#EFEFEF"
    fillOpacity="0.5"
  />
  <path
    d="M7.27247 5.81073C7.40267 5.81073 7.50821 5.70519 7.50821 5.575C7.50821 5.4448 7.40267 5.33926 7.27247 5.33926C7.14228 5.33926 7.03674 5.4448 7.03674 5.575C7.03674 5.70519 7.14228 5.81073 7.27247 5.81073Z"
    fill="#EFEFEF"
    fillOpacity="0.5"
  />
  <path
    d="M12.0225 8.68383C12.1527 8.68383 12.2582 8.57829 12.2582 8.4481C12.2582 8.31791 12.1527 8.21237 12.0225 8.21237C11.8923 8.21237 11.7867 8.31791 11.7867 8.4481C11.7867 8.57829 11.8923 8.68383 12.0225 8.68383Z"
    fill="#EFEFEF"
    fillOpacity="0.5"
  />
  <path
    d="M10.2074 7.43139C10.3506 7.43139 10.4667 7.31529 10.4667 7.17208C10.4667 7.02887 10.3506 6.91278 10.2074 6.91278C10.0642 6.91278 9.94812 7.02887 9.94812 7.17208C9.94812 7.31529 10.0642 7.43139 10.2074 7.43139Z"
    fill="#EFEFEF"
    fillOpacity="0.5"
  />
  <path
    d="M7.46682 9.41464C7.61003 9.41464 7.72613 9.29854 7.72613 9.15533C7.72613 9.01212 7.61003 8.89603 7.46682 8.89603C7.32361 8.89603 7.20752 9.01212 7.20752 9.15533C7.20752 9.29854 7.32361 9.41464 7.46682 9.41464Z"
    fill="#EFEFEF"
    fillOpacity="0.5"
  />
  <path
    d="M8.20053 8.31536C8.31444 8.31536 8.40679 8.22301 8.40679 8.1091C8.40679 7.99518 8.31444 7.90283 8.20053 7.90283C8.08661 7.90283 7.99426 7.99518 7.99426 8.1091C7.99426 8.22301 8.08661 8.31536 8.20053 8.31536Z"
    fill="#EFEFEF"
    fillOpacity="0.5"
  />
  <path
    d="M11.2857 9.80925C11.4566 9.80925 11.5951 9.67073 11.5951 9.49986C11.5951 9.32898 11.4566 9.19046 11.2857 9.19046C11.1148 9.19046 10.9763 9.32898 10.9763 9.49986C10.9763 9.67073 11.1148 9.80925 11.2857 9.80925Z"
    fill="#EFEFEF"
    fillOpacity="0.5"
  />
  <path
    d="M10.0509 2.15106C10.313 2.15106 10.5254 1.93866 10.5254 1.67665C10.5254 1.41464 10.313 1.20224 10.0509 1.20224C9.78894 1.20224 9.57654 1.41464 9.57654 1.67665C9.57654 1.93866 9.78894 2.15106 10.0509 2.15106Z"
    fill="#EFEFEF"
    fillOpacity="0.5"
  />
  <path
    d="M10.7907 1.03722C11.0771 1.03722 11.3093 0.805028 11.3093 0.518609C11.3093 0.232189 11.0771 0 10.7907 0C10.5043 0 10.2721 0.232189 10.2721 0.518609C10.2721 0.805028 10.5043 1.03722 10.7907 1.03722Z"
    fill="#EFEFEF"
    fillOpacity="0.5"
  />
  <path
    d="M10.5989 3.31789C10.8446 3.31789 11.0438 3.11869 11.0438 2.87295C11.0438 2.62722 10.8446 2.42801 10.5989 2.42801C10.3531 2.42801 10.1539 2.62722 10.1539 2.87295C10.1539 3.11869 10.3531 3.31789 10.5989 3.31789Z"
    fill="#EFEFEF"
    fillOpacity="0.5"
  />
  <path
    d="M9.3202 3.12059C9.57895 3.12059 9.78872 2.91083 9.78872 2.65208C9.78872 2.39332 9.57895 2.18356 9.3202 2.18356C9.06145 2.18356 8.85168 2.39332 8.85168 2.65208C8.85168 2.91083 9.06145 3.12059 9.3202 3.12059Z"
    fill="#EFEFEF"
    fillOpacity="0.5"
  />
  <path
    d="M11.1294 4.36389C11.3768 4.36389 11.5773 4.16336 11.5773 3.916C11.5773 3.66864 11.3768 3.46811 11.1294 3.46811C10.882 3.46811 10.6815 3.66864 10.6815 3.916C10.6815 4.16336 10.882 4.36389 11.1294 4.36389Z"
    fill="#EFEFEF"
    fillOpacity="0.5"
  />
  <path
    d="M9.86232 4.23722C10.0983 4.23722 10.2896 4.04592 10.2896 3.80995C10.2896 3.57398 10.0983 3.38269 9.86232 3.38269C9.62635 3.38269 9.43506 3.57398 9.43506 3.80995C9.43506 4.04592 9.62635 4.23722 9.86232 4.23722Z"
    fill="#EFEFEF"
    fillOpacity="0.5"
  />
  <path
    d="M8.58356 4.06927C8.78861 4.06927 8.95483 3.90305 8.95483 3.698C8.95483 3.49295 8.78861 3.32672 8.58356 3.32672C8.37851 3.32672 8.21228 3.49295 8.21228 3.698C8.21228 3.90305 8.37851 4.06927 8.58356 4.06927Z"
    fill="#EFEFEF"
    fillOpacity="0.5"
  />
  <path
    d="M9.12286 5.23016C9.32791 5.23016 9.49414 5.06394 9.49414 4.85889C9.49414 4.65384 9.32791 4.48761 9.12286 4.48761C8.91781 4.48761 8.75159 4.65384 8.75159 4.85889C8.75159 5.06394 8.91781 5.23016 9.12286 5.23016Z"
    fill="#EFEFEF"
    fillOpacity="0.5"
  />
  <path
    d="M10.4046 5.34219C10.6097 5.34219 10.7759 5.17597 10.7759 4.97092C10.7759 4.76587 10.6097 4.59964 10.4046 4.59964C10.1996 4.59964 10.0333 4.76587 10.0333 4.97092C10.0333 5.17597 10.1996 5.34219 10.4046 5.34219Z"
    fill="#EFEFEF"
    fillOpacity="0.5"
  />
  <path
    d="M10.941 6.54727C11.1754 6.54727 11.3654 6.3573 11.3654 6.12296C11.3654 5.88861 11.1754 5.69864 10.941 5.69864C10.7067 5.69864 10.5167 5.88861 10.5167 6.12296C10.5167 6.3573 10.7067 6.54727 10.941 6.54727Z"
    fill="#EFEFEF"
    fillOpacity="0.5"
  />
  <path
    d="M11.4801 7.65818C11.6884 7.65818 11.8572 7.48931 11.8572 7.28101C11.8572 7.0727 11.6884 6.90384 11.4801 6.90384C11.2718 6.90384 11.1029 7.0727 11.1029 7.28101C11.1029 7.48931 11.2718 7.65818 11.4801 7.65818Z"
    fill="#EFEFEF"
    fillOpacity="0.5"
  />
  <path
    d="M7.65831 7.36663C7.89102 7.36663 8.07968 7.17798 8.07968 6.94526C8.07968 6.71255 7.89102 6.5239 7.65831 6.5239C7.42559 6.5239 7.23694 6.71255 7.23694 6.94526C7.23694 7.17798 7.42559 7.36663 7.65831 7.36663Z"
    fill="#EFEFEF"
    fillOpacity="0.5"
  />
  <path
    d="M8.39783 6.32919C8.63217 6.32919 8.82214 6.13922 8.82214 5.90488C8.82214 5.67053 8.63217 5.48056 8.39783 5.48056C8.16348 5.48056 7.97351 5.67053 7.97351 5.90488C7.97351 6.13922 8.16348 6.32919 8.39783 6.32919Z"
    fill="#EFEFEF"
    fillOpacity="0.5"
  />
  <path
    d="M10.7523 8.76041C10.9867 8.76041 11.1766 8.57043 11.1766 8.33609C11.1766 8.10175 10.9867 7.91177 10.7523 7.91177C10.518 7.91177 10.328 8.10175 10.328 8.33609C10.328 8.57043 10.518 8.76041 10.7523 8.76041Z"
    fill="#EFEFEF"
    fillOpacity="0.5"
  />
  <path
    d="M11.6835 5.39544C11.8576 5.39544 11.9987 5.25428 11.9987 5.08015C11.9987 4.90602 11.8576 4.76486 11.6835 4.76486C11.5093 4.76486 11.3682 4.90602 11.3682 5.08015C11.3682 5.25428 11.5093 5.39544 11.6835 5.39544Z"
    fill="#EFEFEF"
    fillOpacity="0.5"
  />
  <path
    d="M7.84984 5.05938C8.02397 5.05938 8.16513 4.91822 8.16513 4.74409C8.16513 4.56996 8.02397 4.4288 7.84984 4.4288C7.67571 4.4288 7.53455 4.56996 7.53455 4.74409C7.53455 4.91822 7.67571 5.05938 7.84984 5.05938Z"
    fill="#EFEFEF"
    fillOpacity="0.5"
  />
  <path
    d="M11.3268 2.18041C11.5855 2.18041 11.7953 1.97065 11.7953 1.71189C11.7953 1.45314 11.5855 1.24338 11.3268 1.24338C11.068 1.24338 10.8583 1.45314 10.8583 1.71189C10.8583 1.97065 11.068 2.18041 11.3268 2.18041Z"
    fill="#EFEFEF"
    fillOpacity="0.5"
  />
  <path
    d="M6.24683 7.36658C6.42258 7.36658 6.56506 7.2241 6.56506 7.04834C6.56506 6.87258 6.42258 6.7301 6.24683 6.7301C6.07107 6.7301 5.92859 6.87258 5.92859 7.04834C5.92859 7.2241 6.07107 7.36658 6.24683 7.36658Z"
    fill="#EFEFEF"
    fillOpacity="0.5"
  />
  <path
    d="M6.19379 7.41962C6.39884 7.41962 6.56506 7.25339 6.56506 7.04834C6.56506 6.84329 6.39884 6.67706 6.19379 6.67706C5.98874 6.67706 5.82251 6.84329 5.82251 7.04834C5.82251 7.25339 5.98874 7.41962 6.19379 7.41962Z"
    fill="#EFEFEF"
    fillOpacity="0.5"
  />
  <path
    d="M6.19379 9.44397C6.39884 9.44397 6.56506 9.27774 6.56506 9.07269C6.56506 8.86764 6.39884 8.70142 6.19379 8.70142C5.98874 8.70142 5.82251 8.86764 5.82251 9.07269C5.82251 9.27774 5.98874 9.44397 6.19379 9.44397Z"
    fill="#EFEFEF"
    fillOpacity="0.5"
  />
  <path
    d="M5.46027 8.36829C5.66532 8.36829 5.83154 8.20206 5.83154 7.99701C5.83154 7.79196 5.66532 7.62573 5.46027 7.62573C5.25521 7.62573 5.08899 7.79196 5.08899 7.99701C5.08899 8.20206 5.25521 8.36829 5.46027 8.36829Z"
    fill="#EFEFEF"
    fillOpacity="0.5"
  />
  <path
    d="M6.92755 8.36829C7.1326 8.36829 7.29883 8.20206 7.29883 7.99701C7.29883 7.79196 7.1326 7.62573 6.92755 7.62573C6.7225 7.62573 6.55627 7.79196 6.55627 7.99701C6.55627 8.20206 6.7225 8.36829 6.92755 8.36829Z"
    fill="#EFEFEF"
    fillOpacity="0.5"
  />
  <path
    d="M5.6546 10.3664C5.74248 10.3664 5.81372 10.2952 5.81372 10.2073C5.81372 10.1194 5.74248 10.0482 5.6546 10.0482C5.56672 10.0482 5.49548 10.1194 5.49548 10.2073C5.49548 10.2952 5.56672 10.3664 5.6546 10.3664Z"
    fill="#EFEFEF"
    fillOpacity="0.5"
  />
  <path
    d="M6.73614 10.3664C6.82402 10.3664 6.89526 10.2952 6.89526 10.2073C6.89526 10.1194 6.82402 10.0482 6.73614 10.0482C6.64827 10.0482 6.57703 10.1194 6.57703 10.2073C6.57703 10.2952 6.64827 10.3664 6.73614 10.3664Z"
    fill="#EFEFEF"
    fillOpacity="0.5"
  />
</svg>
