<svg width="34" height="27" viewBox="0 0 34 27" fill="none" xmlns="http://www.w3.org/2000/svg">
<path d="M33.6227 19.1102C33.5001 18.9849 33.3537 18.8846 33.1918 18.8151C33.03 18.7457 32.8559 18.7084 32.6794 18.7054C32.503 18.7024 32.3277 18.7338 32.1635 18.7977C31.9994 18.8616 31.8496 18.9569 31.7227 19.078L28.082 22.5506V7.90503C28.0617 6.29124 27.3982 4.75035 26.2353 3.61625C25.0724 2.48215 23.5037 1.8462 21.8692 1.8462C20.2347 1.8462 18.666 2.48215 17.5031 3.61625C16.3402 4.75035 15.6767 6.29124 15.6564 7.90503V13.4953V19.0903C15.6411 20.0037 15.2629 20.8746 14.6033 21.5153C13.9437 22.1559 13.0556 22.5149 12.1304 22.5149C11.2052 22.5149 10.317 22.1559 9.65742 21.5153C8.99783 20.8746 8.61963 20.0037 8.60437 19.0903V4.57362L11.9121 7.89745C12.0357 8.02188 12.1829 8.12105 12.3453 8.18929C12.5078 8.25753 12.6822 8.29352 12.8588 8.29519C13.0353 8.29686 13.2104 8.26419 13.3741 8.19903C13.5379 8.13388 13.687 8.03752 13.813 7.91545C13.939 7.79339 14.0394 7.64802 14.1086 7.48763C14.1777 7.32724 14.2141 7.15498 14.2158 6.98068C14.2175 6.80639 14.1844 6.63347 14.1184 6.4718C14.0524 6.31013 13.9548 6.16288 13.8312 6.03845L8.21574 0.397032C7.96742 0.147242 7.62918 0.00448575 7.27473 -0.000128712C6.92028 -0.00474318 6.57834 0.129159 6.32344 0.372397L0.409521 6.01382C0.153242 6.25833 0.00582857 6.59335 -0.000289968 6.94517C-0.00640851 7.297 0.129269 7.63682 0.376895 7.88987C0.624521 8.14292 0.963812 8.28848 1.32013 8.29452C1.67644 8.30056 2.02059 8.16659 2.27687 7.92209L5.91754 4.45328V19.095C5.93785 20.7088 6.60135 22.2497 7.76428 23.3838C8.9272 24.5179 10.4959 25.1538 12.1304 25.1538C13.7649 25.1538 15.3335 24.5179 16.4965 23.3838C17.6594 22.2497 18.3229 20.7088 18.3432 19.095V13.5V7.90977C18.3585 6.99634 18.7367 6.12542 19.3962 5.48479C20.0558 4.84416 20.944 4.48514 21.8692 4.48514C22.7944 4.48514 23.6825 4.84416 24.3421 5.48479C25.0017 6.12542 25.3799 6.99634 25.3952 7.90977V22.4264L22.0875 19.1026C21.8378 18.8513 21.4973 18.7082 21.1408 18.7049C20.7843 18.7015 20.4411 18.8381 20.1866 19.0846C19.9321 19.3311 19.7872 19.6674 19.7837 20.0194C19.7803 20.3714 19.9187 20.7103 20.1683 20.9616L25.7819 26.603C26.0302 26.8525 26.3682 26.9951 26.7224 26.9997C27.0766 27.0043 27.4184 26.8706 27.6732 26.6277L33.5872 20.9862C33.7143 20.8654 33.816 20.721 33.8866 20.5613C33.9572 20.4016 33.9952 20.2297 33.9985 20.0555C34.0018 19.8813 33.9703 19.7081 33.9058 19.5459C33.8413 19.3837 33.7451 19.2356 33.6227 19.1102Z" fill="url(#paint0_linear_284_609)"/>
<defs>
<linearGradient id="paint0_linear_284_609" x1="1.13689" y1="0.939002" x2="30.609" y2="24.8755" gradientUnits="userSpaceOnUse">
<stop stop-color="#7D7BEB"/>
<stop offset="0.21" stop-color="#817BEA"/>
<stop offset="0.41" stop-color="#8C7BE8"/>
<stop offset="0.59" stop-color="#9E7CE5"/>
<stop offset="0.77" stop-color="#B87DE1"/>
<stop offset="0.95" stop-color="#D97EDB"/>
<stop offset="1" stop-color="#E57ED9"/>
</linearGradient>
</defs>
</svg>
