<svg width="34" height="43" viewBox="0 0 34 43" fill="none" xmlns="http://www.w3.org/2000/svg">
<g clip-path="url(#clip0_284_634)">
<path d="M14.7197 36.4918C12.9524 35.5164 10.7524 35.236 8.35929 35.6809C8.2083 35.7089 8.06436 35.766 7.93568 35.8491C7.807 35.9322 7.69611 36.0396 7.60933 36.1651C7.52255 36.2907 7.46158 36.4319 7.42991 36.5808C7.39825 36.7297 7.39649 36.8833 7.42475 37.0328C7.45302 37.1824 7.51074 37.3249 7.59463 37.4524C7.67852 37.5798 7.78694 37.6897 7.91368 37.7756C8.04043 37.8616 8.18303 37.922 8.33334 37.9533C8.48365 37.9847 8.63873 37.9864 8.78971 37.9584C12.4799 37.2738 15.2309 38.7416 16.1514 41.8856C16.2406 42.1773 16.4422 42.4224 16.7126 42.5678C16.983 42.7132 17.3004 42.7472 17.5959 42.6625C17.8915 42.5778 18.1414 42.3811 18.2916 42.1151C18.4418 41.8492 18.4801 41.5353 18.3982 41.2415C17.7783 39.1227 16.5058 37.4811 14.7197 36.4918Z" fill="url(#paint0_linear_284_634)"/>
<path d="M31.4539 32.4093C31.7641 32.4093 32.0616 32.2873 32.281 32.07C32.5003 31.8528 32.6236 31.5581 32.6236 31.2509C32.6236 30.9436 32.5003 30.649 32.281 30.4317C32.0616 30.2144 31.7641 30.0924 31.4539 30.0924C29.5455 30.0929 27.6654 30.5496 25.9732 31.4237C24.2811 32.2978 22.827 33.5634 21.7343 35.1132V27.0514C21.7343 26.7442 21.6111 26.4495 21.3917 26.2323C21.1724 26.015 20.8749 25.8929 20.5647 25.8929C20.2545 25.8929 19.957 26.015 19.7376 26.2323C19.5183 26.4495 19.395 26.7442 19.395 27.0514V34.7378C18.4123 33.4534 17.1733 32.3828 15.7551 31.5926C15.6973 31.5605 15.6366 31.5338 15.5739 31.5127C14.5144 28.6696 12.388 26.3412 9.63788 25.0128C6.88774 23.6844 3.72608 23.4586 0.811944 24.3823C0.517988 24.4764 0.273549 24.6818 0.131987 24.9538C-0.00957435 25.2257 -0.0367611 25.5421 0.0563621 25.8339C0.993294 28.7249 3.02408 31.1444 5.72281 32.5847C8.42154 34.0251 11.5785 34.3745 14.5317 33.5597C14.5574 33.5759 14.582 33.5933 14.6089 33.6083C15.9032 34.3295 17.0098 35.3398 17.8407 36.5589C18.6716 37.778 19.2038 39.1723 19.395 40.631V40.8244C19.3957 40.9423 19.4142 41.0595 19.45 41.172C19.4664 41.3905 19.4746 41.6106 19.4746 41.8323C19.4746 42.1395 19.5978 42.4342 19.8171 42.6515C20.0365 42.8687 20.334 42.9908 20.6442 42.9908H20.7027H20.7612C21.0714 42.9908 21.3689 42.8687 21.5882 42.6515C21.8076 42.4342 21.9308 42.1395 21.9308 41.8323C21.9361 39.3332 22.9414 36.938 24.7264 35.1717C26.5115 33.4054 28.9307 32.4121 31.4539 32.4093ZM6.99929 30.6357C5.13331 29.6925 3.63626 28.1625 2.743 26.2857C4.80326 25.9197 6.92784 26.2346 8.78973 27.1818C10.6516 28.1289 12.1476 29.6559 13.0475 31.5277C10.9873 31.9022 8.85991 31.5884 6.99929 30.6357Z" fill="url(#paint1_linear_284_634)"/>
<path d="M33.1553 35.7109C32.1222 35.4134 31.0401 35.3205 29.9707 35.4374C28.9013 35.5544 27.8657 35.879 26.923 36.3926C25.9804 36.9062 25.1492 37.5988 24.4769 38.4308C23.8047 39.2628 23.3046 40.2179 23.0053 41.2414C22.9189 41.5365 22.9544 41.8536 23.104 42.1227C23.2536 42.3919 23.505 42.5912 23.8029 42.6768C24.1009 42.7623 24.421 42.7272 24.6927 42.579C24.9645 42.4308 25.1657 42.1818 25.2521 41.8867C25.4657 41.1552 25.8228 40.4726 26.3029 39.8779C26.7831 39.2833 27.377 38.7882 28.0505 38.4211C28.724 38.054 29.4641 37.822 30.2282 37.7384C30.9924 37.6548 31.7656 37.7213 32.5038 37.934C32.8018 38.0196 33.1219 37.9844 33.3936 37.8362C33.6654 37.6881 33.8666 37.439 33.953 37.1439C34.0394 36.8488 34.0039 36.5318 33.8543 36.2626C33.7047 35.9935 33.4533 35.7942 33.1553 35.7086V35.7109Z" fill="url(#paint2_linear_284_634)"/>
<path d="M20.8872 24.1888C23.3023 24.1888 25.6632 23.4795 27.6712 22.1505C29.6793 20.8216 31.2444 18.9327 32.1686 16.7227C33.0929 14.5128 33.3347 12.081 32.8635 9.73491C32.3924 7.38882 31.2294 5.23381 29.5217 3.54237C27.8139 1.85094 25.6381 0.699061 23.2694 0.232396C20.9008 -0.234269 18.4455 0.00524029 16.2143 0.920637C13.983 1.83603 12.0759 3.3862 10.7342 5.37512C9.39243 7.36403 8.67627 9.70236 8.67627 12.0944C8.67968 15.301 9.96728 18.3753 12.2565 20.6427C14.5458 22.9101 17.6497 24.1854 20.8872 24.1888ZM20.8872 2.31694C22.8396 2.31694 24.7482 2.89038 26.3716 3.96474C27.995 5.0391 29.2603 6.56613 30.0075 8.35273C30.7546 10.1393 30.9501 12.1053 30.5692 14.0019C30.1883 15.8985 29.2481 17.6407 27.8675 19.0081C26.487 20.3755 24.728 21.3067 22.8131 21.684C20.8982 22.0613 18.9133 21.8676 17.1095 21.1276C15.3057 20.3876 13.7639 19.1344 12.6792 17.5265C11.5945 15.9186 11.0155 14.0282 11.0155 12.0944C11.0183 9.50211 12.0593 7.01678 13.91 5.18374C15.7607 3.35071 18.2699 2.3197 20.8872 2.31694Z" fill="url(#paint3_linear_284_634)"/>
<path d="M27.0242 10.7263C26.8807 10.7227 26.7383 10.7516 26.6078 10.8108L21.6064 5.92904C21.6649 5.80074 21.6963 5.66199 21.6988 5.52126C21.6982 5.38911 21.6711 5.25839 21.6191 5.13669C21.5671 5.01499 21.4912 4.90472 21.3959 4.81228C21.203 4.62198 20.9418 4.51514 20.6696 4.51514C20.3973 4.51514 20.1361 4.62198 19.9432 4.81228C19.7516 4.99966 19.6427 5.25457 19.6403 5.52126C19.6376 5.66204 19.6676 5.80156 19.728 5.92904L14.7372 10.7992C14.6052 10.7447 14.4638 10.7156 14.3208 10.7135C14.0475 10.712 13.7846 10.8168 13.5886 11.0054C13.4926 11.0971 13.4163 11.2069 13.3642 11.3285C13.312 11.45 13.2852 11.5807 13.2852 11.7127C13.2852 11.8447 13.312 11.9754 13.3642 12.0969C13.4163 12.2184 13.4926 12.3283 13.5886 12.4199C13.7825 12.6081 14.0423 12.7147 14.3138 12.7177C14.4573 12.7212 14.5997 12.6923 14.7302 12.6331L19.7268 17.5126C19.671 17.6411 19.6411 17.7793 19.6391 17.9192C19.6408 18.1861 19.7493 18.4415 19.9409 18.6293C20.1337 18.8193 20.3947 18.9259 20.6666 18.9259C20.9386 18.9259 21.1995 18.8193 21.3924 18.6293C21.5843 18.4424 21.6939 18.188 21.6977 17.9215C21.7001 17.7806 21.6684 17.6412 21.6053 17.5149L26.6078 12.6273C26.7394 12.683 26.881 12.7118 27.0242 12.7119C27.2962 12.7118 27.5574 12.6062 27.7517 12.4176C27.8475 12.3263 27.9238 12.2167 27.9759 12.0955C28.028 11.9743 28.0549 11.8439 28.0549 11.7121C28.0549 11.5804 28.028 11.45 27.9759 11.3287C27.9238 11.2075 27.8475 11.0979 27.7517 11.0066C27.5558 10.8221 27.2944 10.7213 27.0242 10.7263ZM26.0627 11.375L24.1211 11.8384C24.0361 11.7263 23.9265 11.6348 23.8007 11.5708C23.6742 11.5065 23.5346 11.4717 23.3925 11.4688C23.1831 11.4677 22.9801 11.54 22.8193 11.6727L21.5561 11.0935V11.0645C21.5576 10.8971 21.5087 10.7329 21.4158 10.593C21.3217 10.4526 21.1884 10.3423 21.0321 10.2756V6.46309C21.045 6.46309 21.0579 6.45035 21.0707 6.45035L26.0709 11.3333C26.066 11.3459 26.0629 11.3592 26.0616 11.3727L26.0627 11.375ZM20.6719 16.9356H20.5935L18.6414 12.9042C18.7758 12.7481 18.8496 12.5497 18.8496 12.3446L20.1245 11.7654C20.2821 11.8892 20.4772 11.9565 20.6783 11.9565C20.8794 11.9565 21.0746 11.8892 21.2322 11.7654L22.5082 12.3446V12.3574C22.5074 12.5626 22.5813 12.7613 22.7164 12.9169L20.7374 16.9322L20.6719 16.9356ZM20.2918 6.46657V10.2779C20.1378 10.348 20.0069 10.4596 19.914 10.6C19.8225 10.7379 19.7718 10.8984 19.7678 11.0634V11.0877L18.5046 11.66C18.3439 11.5277 18.1415 11.4556 17.9326 11.4561C17.7897 11.4573 17.6491 11.4918 17.5221 11.5569C17.3959 11.6216 17.2872 11.7154 17.2051 11.8303L15.2834 11.3669C15.2834 11.3541 15.2705 11.3414 15.2705 11.3159L20.2695 6.44108C20.266 6.45035 20.2789 6.45035 20.2918 6.46309V6.46657ZM15.2624 12.1257L17.0765 12.5543C17.1259 12.745 17.2388 12.9135 17.3969 13.0328C17.5559 13.1526 17.7504 13.2169 17.9502 13.2158H17.963L19.3958 16.1664L15.2624 12.1257ZM23.3749 13.2193H23.3925C23.5919 13.2184 23.7857 13.1534 23.9445 13.0339C24.1016 12.9144 24.2146 12.7471 24.2662 12.5578L26.0756 12.1257V12.1384L21.948 16.1699L23.3749 13.2193Z" fill="url(#paint4_linear_284_634)"/>
<path d="M14.7197 36.4918C12.9524 35.5164 10.7524 35.236 8.35929 35.6809C8.2083 35.7089 8.06436 35.766 7.93568 35.8491C7.807 35.9322 7.69611 36.0396 7.60933 36.1651C7.52255 36.2907 7.46158 36.4319 7.42991 36.5808C7.39825 36.7297 7.39649 36.8833 7.42475 37.0328C7.45302 37.1824 7.51074 37.3249 7.59463 37.4524C7.67852 37.5798 7.78694 37.6897 7.91368 37.7756C8.04043 37.8616 8.18303 37.922 8.33334 37.9533C8.48365 37.9847 8.63873 37.9864 8.78971 37.9584C12.4799 37.2738 15.2309 38.7416 16.1514 41.8856C16.2406 42.1773 16.4422 42.4224 16.7126 42.5678C16.983 42.7132 17.3004 42.7472 17.5959 42.6625C17.8915 42.5778 18.1414 42.3811 18.2916 42.1151C18.4418 41.8492 18.4801 41.5353 18.3982 41.2415C17.7783 39.1227 16.5058 37.4811 14.7197 36.4918Z" fill="url(#paint5_linear_284_634)"/>
<path d="M31.4539 32.4093C31.7641 32.4093 32.0616 32.2873 32.281 32.07C32.5003 31.8528 32.6236 31.5581 32.6236 31.2509C32.6236 30.9436 32.5003 30.649 32.281 30.4317C32.0616 30.2144 31.7641 30.0924 31.4539 30.0924C29.5455 30.0929 27.6654 30.5496 25.9732 31.4237C24.2811 32.2978 22.827 33.5634 21.7343 35.1132V27.0514C21.7343 26.7442 21.6111 26.4495 21.3917 26.2323C21.1724 26.015 20.8749 25.8929 20.5647 25.8929C20.2545 25.8929 19.957 26.015 19.7376 26.2323C19.5183 26.4495 19.395 26.7442 19.395 27.0514V34.7378C18.4123 33.4534 17.1733 32.3828 15.7551 31.5926C15.6973 31.5605 15.6366 31.5338 15.5739 31.5127C14.5144 28.6696 12.388 26.3412 9.63788 25.0128C6.88774 23.6844 3.72608 23.4586 0.811944 24.3823C0.517988 24.4764 0.273549 24.6818 0.131987 24.9538C-0.00957435 25.2257 -0.0367611 25.5421 0.0563621 25.8339C0.993294 28.7249 3.02408 31.1444 5.72281 32.5847C8.42154 34.0251 11.5785 34.3745 14.5317 33.5597C14.5574 33.5759 14.582 33.5933 14.6089 33.6083C15.9032 34.3295 17.0098 35.3398 17.8407 36.5589C18.6716 37.778 19.2038 39.1723 19.395 40.631V40.8244C19.3957 40.9423 19.4142 41.0595 19.45 41.172C19.4664 41.3905 19.4746 41.6106 19.4746 41.8323C19.4746 42.1395 19.5978 42.4342 19.8171 42.6515C20.0365 42.8687 20.334 42.9908 20.6442 42.9908H20.7027H20.7612C21.0714 42.9908 21.3689 42.8687 21.5882 42.6515C21.8076 42.4342 21.9308 42.1395 21.9308 41.8323C21.9361 39.3332 22.9414 36.938 24.7264 35.1717C26.5115 33.4054 28.9307 32.4121 31.4539 32.4093ZM6.99929 30.6357C5.13331 29.6925 3.63626 28.1625 2.743 26.2857C4.80326 25.9197 6.92784 26.2346 8.78973 27.1818C10.6516 28.1289 12.1476 29.6559 13.0475 31.5277C10.9873 31.9022 8.85991 31.5884 6.99929 30.6357Z" fill="url(#paint6_linear_284_634)"/>
<path d="M33.1553 35.7109C32.1222 35.4134 31.0401 35.3205 29.9707 35.4374C28.9013 35.5544 27.8657 35.879 26.923 36.3926C25.9804 36.9062 25.1492 37.5988 24.4769 38.4308C23.8047 39.2628 23.3046 40.2179 23.0053 41.2414C22.9189 41.5365 22.9544 41.8536 23.104 42.1227C23.2536 42.3919 23.505 42.5912 23.8029 42.6768C24.1009 42.7623 24.421 42.7272 24.6927 42.579C24.9645 42.4308 25.1657 42.1818 25.2521 41.8867C25.4657 41.1552 25.8228 40.4726 26.3029 39.8779C26.7831 39.2833 27.377 38.7882 28.0505 38.4211C28.724 38.054 29.4641 37.822 30.2282 37.7384C30.9924 37.6548 31.7656 37.7213 32.5038 37.934C32.8018 38.0196 33.1219 37.9844 33.3936 37.8362C33.6654 37.6881 33.8666 37.439 33.953 37.1439C34.0394 36.8488 34.0039 36.5318 33.8543 36.2626C33.7047 35.9935 33.4533 35.7942 33.1553 35.7086V35.7109Z" fill="url(#paint7_linear_284_634)"/>
<path d="M20.8872 24.1888C23.3023 24.1888 25.6632 23.4795 27.6712 22.1505C29.6793 20.8216 31.2444 18.9327 32.1686 16.7227C33.0929 14.5128 33.3347 12.081 32.8635 9.73491C32.3924 7.38882 31.2294 5.23381 29.5217 3.54237C27.8139 1.85094 25.6381 0.699061 23.2694 0.232396C20.9008 -0.234269 18.4455 0.00524029 16.2143 0.920637C13.983 1.83603 12.0759 3.3862 10.7342 5.37512C9.39243 7.36403 8.67627 9.70236 8.67627 12.0944C8.67968 15.301 9.96728 18.3753 12.2565 20.6427C14.5458 22.9101 17.6497 24.1854 20.8872 24.1888ZM20.8872 2.31694C22.8396 2.31694 24.7482 2.89038 26.3716 3.96474C27.995 5.0391 29.2603 6.56613 30.0075 8.35273C30.7546 10.1393 30.9501 12.1053 30.5692 14.0019C30.1883 15.8985 29.2481 17.6407 27.8675 19.0081C26.487 20.3755 24.728 21.3067 22.8131 21.684C20.8982 22.0613 18.9133 21.8676 17.1095 21.1276C15.3057 20.3876 13.7639 19.1344 12.6792 17.5265C11.5945 15.9186 11.0155 14.0282 11.0155 12.0944C11.0183 9.50211 12.0593 7.01678 13.91 5.18374C15.7607 3.35071 18.2699 2.3197 20.8872 2.31694Z" fill="url(#paint8_linear_284_634)"/>
<path d="M27.0242 10.7263C26.8807 10.7227 26.7383 10.7516 26.6078 10.8108L21.6064 5.92904C21.6649 5.80074 21.6963 5.66199 21.6988 5.52126C21.6982 5.38911 21.6711 5.25839 21.6191 5.13669C21.5671 5.01499 21.4912 4.90472 21.3959 4.81228C21.203 4.62198 20.9418 4.51514 20.6696 4.51514C20.3973 4.51514 20.1361 4.62198 19.9432 4.81228C19.7516 4.99966 19.6427 5.25457 19.6403 5.52126C19.6376 5.66204 19.6676 5.80156 19.728 5.92904L14.7372 10.7992C14.6052 10.7447 14.4638 10.7156 14.3208 10.7135C14.0475 10.712 13.7846 10.8168 13.5886 11.0054C13.4926 11.0971 13.4163 11.2069 13.3642 11.3285C13.312 11.45 13.2852 11.5807 13.2852 11.7127C13.2852 11.8447 13.312 11.9754 13.3642 12.0969C13.4163 12.2184 13.4926 12.3283 13.5886 12.4199C13.7825 12.6081 14.0423 12.7147 14.3138 12.7177C14.4573 12.7212 14.5997 12.6923 14.7302 12.6331L19.7268 17.5126C19.671 17.6411 19.6411 17.7793 19.6391 17.9192C19.6408 18.1861 19.7493 18.4415 19.9409 18.6293C20.1337 18.8193 20.3947 18.9259 20.6666 18.9259C20.9386 18.9259 21.1995 18.8193 21.3924 18.6293C21.5843 18.4424 21.6939 18.188 21.6977 17.9215C21.7001 17.7806 21.6684 17.6412 21.6053 17.5149L26.6078 12.6273C26.7394 12.683 26.881 12.7118 27.0242 12.7119C27.2962 12.7118 27.5574 12.6062 27.7517 12.4176C27.8475 12.3263 27.9238 12.2167 27.9759 12.0955C28.028 11.9743 28.0549 11.8439 28.0549 11.7121C28.0549 11.5804 28.028 11.45 27.9759 11.3287C27.9238 11.2075 27.8475 11.0979 27.7517 11.0066C27.5558 10.8221 27.2944 10.7213 27.0242 10.7263ZM26.0627 11.375L24.1211 11.8384C24.0361 11.7263 23.9265 11.6348 23.8007 11.5708C23.6742 11.5065 23.5346 11.4717 23.3925 11.4688C23.1831 11.4677 22.9801 11.54 22.8193 11.6727L21.5561 11.0935V11.0645C21.5576 10.8971 21.5087 10.7329 21.4158 10.593C21.3217 10.4526 21.1884 10.3423 21.0321 10.2756V6.46309C21.045 6.46309 21.0579 6.45035 21.0707 6.45035L26.0709 11.3333C26.066 11.3459 26.0629 11.3592 26.0616 11.3727L26.0627 11.375ZM20.6719 16.9356H20.5935L18.6414 12.9042C18.7758 12.7481 18.8496 12.5497 18.8496 12.3446L20.1245 11.7654C20.2821 11.8892 20.4772 11.9565 20.6783 11.9565C20.8794 11.9565 21.0746 11.8892 21.2322 11.7654L22.5082 12.3446V12.3574C22.5074 12.5626 22.5813 12.7613 22.7164 12.9169L20.7374 16.9322L20.6719 16.9356ZM20.2918 6.46657V10.2779C20.1378 10.348 20.0069 10.4596 19.914 10.6C19.8225 10.7379 19.7718 10.8984 19.7678 11.0634V11.0877L18.5046 11.66C18.3439 11.5277 18.1415 11.4556 17.9326 11.4561C17.7897 11.4573 17.6491 11.4918 17.5221 11.5569C17.3959 11.6216 17.2872 11.7154 17.2051 11.8303L15.2834 11.3669C15.2834 11.3541 15.2705 11.3414 15.2705 11.3159L20.2695 6.44108C20.266 6.45035 20.2789 6.45035 20.2918 6.46309V6.46657ZM15.2624 12.1257L17.0765 12.5543C17.1259 12.745 17.2388 12.9135 17.3969 13.0328C17.5559 13.1526 17.7504 13.2169 17.9502 13.2158H17.963L19.3958 16.1664L15.2624 12.1257ZM23.3749 13.2193H23.3925C23.5919 13.2184 23.7857 13.1534 23.9445 13.0339C24.1016 12.9144 24.2146 12.7471 24.2662 12.5578L26.0756 12.1257V12.1384L21.948 16.1699L23.3749 13.2193Z" fill="url(#paint9_linear_284_634)"/>
</g>
<defs>
<linearGradient id="paint0_linear_284_634" x1="-10.5279" y1="16.8558" x2="29.7754" y2="54.7421" gradientUnits="userSpaceOnUse">
<stop stop-color="#039EF1"/>
<stop offset="0.12" stop-color="#0A9CF1"/>
<stop offset="0.28" stop-color="#1C97F0"/>
<stop offset="0.47" stop-color="#3A8EEE"/>
<stop offset="0.69" stop-color="#6482EC"/>
<stop offset="0.8" stop-color="#7D7BEB"/>
</linearGradient>
<linearGradient id="paint1_linear_284_634" x1="-1206.34" y1="1720.98" x2="4825.1" y2="11277.7" gradientUnits="userSpaceOnUse">
<stop stop-color="#039EF1"/>
<stop offset="0.12" stop-color="#0A9CF1"/>
<stop offset="0.28" stop-color="#1C97F0"/>
<stop offset="0.47" stop-color="#3A8EEE"/>
<stop offset="0.69" stop-color="#6482EC"/>
<stop offset="0.8" stop-color="#7D7BEB"/>
</linearGradient>
<linearGradient id="paint2_linear_284_634" x1="-322.823" y1="640.238" x2="2094.58" y2="4028.33" gradientUnits="userSpaceOnUse">
<stop stop-color="#039EF1"/>
<stop offset="0.12" stop-color="#0A9CF1"/>
<stop offset="0.28" stop-color="#1C97F0"/>
<stop offset="0.47" stop-color="#3A8EEE"/>
<stop offset="0.69" stop-color="#6482EC"/>
<stop offset="0.8" stop-color="#7D7BEB"/>
</linearGradient>
<linearGradient id="paint3_linear_284_634" x1="1356.76" y1="-253.257" x2="9772.34" y2="7657.4" gradientUnits="userSpaceOnUse">
<stop stop-color="#039EF1"/>
<stop offset="0.12" stop-color="#0A9CF1"/>
<stop offset="0.28" stop-color="#1C97F0"/>
<stop offset="0.47" stop-color="#3A8EEE"/>
<stop offset="0.69" stop-color="#6482EC"/>
<stop offset="0.8" stop-color="#7D7BEB"/>
</linearGradient>
<linearGradient id="paint4_linear_284_634" x1="839.65" y1="-157.75" x2="5857.27" y2="4630.16" gradientUnits="userSpaceOnUse">
<stop stop-color="#039EF1"/>
<stop offset="0.12" stop-color="#0A9CF1"/>
<stop offset="0.28" stop-color="#1C97F0"/>
<stop offset="0.47" stop-color="#3A8EEE"/>
<stop offset="0.69" stop-color="#6482EC"/>
<stop offset="0.8" stop-color="#7D7BEB"/>
</linearGradient>
<linearGradient id="paint5_linear_284_634" x1="33.8514" y1="37.2182" x2="3.67296" y2="3.59638" gradientUnits="userSpaceOnUse">
<stop stop-color="#7D7BEB"/>
<stop offset="0.21" stop-color="#817BEA"/>
<stop offset="0.41" stop-color="#8C7BE8"/>
<stop offset="0.59" stop-color="#9E7CE5"/>
<stop offset="0.77" stop-color="#B87DE1"/>
<stop offset="0.95" stop-color="#D97EDB"/>
<stop offset="1" stop-color="#E57ED9"/>
</linearGradient>
<linearGradient id="paint6_linear_284_634" x1="33.8517" y1="37.2181" x2="3.67327" y2="3.59636" gradientUnits="userSpaceOnUse">
<stop stop-color="#7D7BEB"/>
<stop offset="0.21" stop-color="#817BEA"/>
<stop offset="0.41" stop-color="#8C7BE8"/>
<stop offset="0.59" stop-color="#9E7CE5"/>
<stop offset="0.77" stop-color="#B87DE1"/>
<stop offset="0.95" stop-color="#D97EDB"/>
<stop offset="1" stop-color="#E57ED9"/>
</linearGradient>
<linearGradient id="paint7_linear_284_634" x1="33.8513" y1="37.2181" x2="3.67287" y2="3.5963" gradientUnits="userSpaceOnUse">
<stop stop-color="#7D7BEB"/>
<stop offset="0.21" stop-color="#817BEA"/>
<stop offset="0.41" stop-color="#8C7BE8"/>
<stop offset="0.59" stop-color="#9E7CE5"/>
<stop offset="0.77" stop-color="#B87DE1"/>
<stop offset="0.95" stop-color="#D97EDB"/>
<stop offset="1" stop-color="#E57ED9"/>
</linearGradient>
<linearGradient id="paint8_linear_284_634" x1="33.8514" y1="37.2181" x2="3.67298" y2="3.59634" gradientUnits="userSpaceOnUse">
<stop stop-color="#7D7BEB"/>
<stop offset="0.21" stop-color="#817BEA"/>
<stop offset="0.41" stop-color="#8C7BE8"/>
<stop offset="0.59" stop-color="#9E7CE5"/>
<stop offset="0.77" stop-color="#B87DE1"/>
<stop offset="0.95" stop-color="#D97EDB"/>
<stop offset="1" stop-color="#E57ED9"/>
</linearGradient>
<linearGradient id="paint9_linear_284_634" x1="33.8513" y1="37.2181" x2="3.67289" y2="3.59632" gradientUnits="userSpaceOnUse">
<stop stop-color="#7D7BEB"/>
<stop offset="0.21" stop-color="#817BEA"/>
<stop offset="0.41" stop-color="#8C7BE8"/>
<stop offset="0.59" stop-color="#9E7CE5"/>
<stop offset="0.77" stop-color="#B87DE1"/>
<stop offset="0.95" stop-color="#D97EDB"/>
<stop offset="1" stop-color="#E57ED9"/>
</linearGradient>
<clipPath id="clip0_284_634">
<rect width="34" height="43" fill="white"/>
</clipPath>
</defs>
</svg>
