<svg width="36" height="35" viewBox="0 0 36 35" fill="none" xmlns="http://www.w3.org/2000/svg">
<g clip-path="url(#clip0_284_616)">
<path d="M28.7516 20.8773C28.5086 20.8718 28.2675 20.9219 28.0464 21.0239L19.5864 12.6162C19.6845 12.3951 19.7374 12.1564 19.7418 11.9143C19.7408 11.6867 19.6951 11.4616 19.6072 11.252C19.5194 11.0423 19.3913 10.8523 19.2302 10.6929C18.9032 10.3672 18.4617 10.1851 18.002 10.1863C17.5423 10.1875 17.1018 10.3719 16.7765 10.6993C16.6157 10.859 16.4876 11.049 16.3997 11.2586C16.3117 11.4682 16.2656 11.6931 16.2639 11.9207C16.2587 12.1631 16.3094 12.4033 16.412 12.6226L7.96026 21.0038C7.73676 20.9095 7.49729 20.8597 7.25504 20.8572C6.79591 20.8573 6.35514 21.0389 6.02726 21.3629C5.86456 21.5206 5.73511 21.7098 5.64669 21.9191C5.55827 22.1284 5.5127 22.3536 5.5127 22.5811C5.5127 22.8087 5.55827 23.0338 5.64669 23.2432C5.73511 23.4525 5.86456 23.6417 6.02726 23.7993C6.35464 24.1238 6.79417 24.3074 7.25322 24.3115C7.49641 24.3188 7.73792 24.2686 7.95844 24.1649L16.4102 32.569C16.315 32.7901 16.2646 33.0281 16.2621 33.2691C16.2628 33.4967 16.3084 33.722 16.396 33.9318C16.4837 34.1416 16.6118 34.3318 16.7728 34.4914C17.1 34.8171 17.5408 35.0004 18.0006 35.0017C18.4596 34.9975 18.8991 34.8139 19.2266 34.4895C19.5509 34.1677 19.7361 33.7297 19.7418 33.2709C19.7458 33.0284 19.6925 32.7885 19.5864 32.5709L28.0464 24.1594C28.2696 24.2546 28.5093 24.3045 28.7516 24.306C29.2118 24.3059 29.6535 24.1232 29.9812 23.7975C30.143 23.64 30.2716 23.4511 30.3593 23.2423C30.4469 23.0334 30.4918 22.8088 30.4912 22.5821C30.4906 22.3553 30.4445 22.131 30.3558 21.9226C30.2671 21.7142 30.1375 21.526 29.9749 21.3694C29.6468 21.05 29.2076 20.8733 28.7516 20.8773ZM27.1249 21.9952L23.8396 22.7859C23.6954 22.5921 23.5092 22.4341 23.2951 22.324C23.081 22.214 22.8448 22.1548 22.6045 22.1509C22.2505 22.1496 21.9072 22.2738 21.6349 22.5019L19.4992 21.515V21.4647C19.5017 21.1762 19.4188 20.8935 19.2611 20.6528C19.1031 20.4093 18.8774 20.2181 18.6122 20.1031V13.5352C18.634 13.5352 18.6549 13.5132 18.6777 13.5132L27.1376 21.9246C27.1285 21.9455 27.123 21.9678 27.1212 21.9906L27.1249 21.9952ZM18.0042 31.5657H17.8734L14.569 24.6231C14.7975 24.3545 14.9223 24.012 14.9207 23.6582L17.0791 22.6503C17.3455 22.8634 17.6755 22.9794 18.0156 22.9794C18.3557 22.9794 18.6857 22.8634 18.9521 22.6503L21.1123 23.6582V23.6802C21.1095 24.035 21.2345 24.3788 21.464 24.6478L18.1151 31.5657H18.0042ZM17.3581 13.5352V20.1067C17.0999 20.2274 16.8797 20.4177 16.7219 20.6565C16.5657 20.8957 16.4797 21.1746 16.4738 21.461V21.5041L14.3373 22.4891C14.0655 22.2611 13.7229 22.1369 13.3694 22.1381C13.1277 22.1391 12.8897 22.1982 12.6751 22.3104C12.4616 22.4219 12.278 22.5838 12.1398 22.7823L8.88723 21.9943C8.88723 21.9723 8.86542 21.9503 8.86542 21.9026L17.3235 13.4912C17.3172 13.5132 17.339 13.5132 17.3581 13.5352ZM8.85905 23.2825L11.9199 24.0275C12.0039 24.3566 12.1961 24.6473 12.4651 24.8521C12.7343 25.0589 13.0637 25.17 13.4021 25.1682H13.4239L15.8468 30.2499L8.85905 23.2825ZM22.5818 25.1655H22.6036C22.9412 25.1639 23.2691 25.0517 23.5379 24.8457C23.8042 24.6411 23.9959 24.3534 24.0831 24.0275L27.1449 23.2825V23.3045L20.1617 30.2472L22.5818 25.1655Z" fill="url(#paint0_linear_284_616)"/>
<path d="M33.6735 0H2.32651C1.70963 0.000485339 1.11815 0.247774 0.68195 0.687568C0.24575 1.12736 0.000481374 1.72371 0 2.34567L0 29.7232C0.000481017 30.3452 0.24572 30.9416 0.681895 31.3816C1.11807 31.8215 1.70954 32.069 2.32651 32.0697H14.7415L13.0448 30.4204H2.32651C2.1434 30.4202 1.96786 30.3468 1.83839 30.2162C1.70891 30.0857 1.63607 29.9087 1.63583 29.7241V8.31431H34.3642V29.7232C34.3639 29.9078 34.2911 30.0848 34.1616 30.2153C34.0321 30.3458 33.8566 30.4193 33.6735 30.4195H23.0642L21.3094 32.0688H33.6689C34.2858 32.0681 34.8771 31.8207 35.3132 31.381C35.7494 30.9413 35.9947 30.345 35.9955 29.7232V2.34567C35.995 1.7245 35.7503 1.12885 35.3151 0.689183C34.8799 0.24952 34.2896 0.001697 33.6735 0V0ZM34.3642 6.66501H1.63583V2.34567C1.63607 2.16106 1.70891 1.98407 1.83839 1.85353C1.96786 1.72299 2.1434 1.64954 2.32651 1.6493H33.6735C33.8566 1.64954 34.0321 1.72299 34.1616 1.85353C34.2911 1.98407 34.3639 2.16106 34.3642 2.34567V6.66501Z" fill="url(#paint1_linear_284_616)"/>
<path d="M4.15845 3.11523C3.95328 3.11505 3.75268 3.17624 3.58202 3.29105C3.41135 3.40586 3.27831 3.56913 3.19971 3.7602C3.12112 3.95127 3.1005 4.16156 3.14049 4.36445C3.18047 4.56733 3.27924 4.7537 3.42432 4.89997C3.56939 5.04624 3.75424 5.14583 3.95547 5.18614C4.1567 5.22645 4.36526 5.20567 4.55477 5.12642C4.74429 5.04718 4.90622 4.91304 5.02009 4.74097C5.13396 4.5689 5.19465 4.36665 5.19447 4.15979C5.19447 3.88276 5.08532 3.61707 4.89103 3.42118C4.69673 3.22529 4.43322 3.11523 4.15845 3.11523Z" fill="url(#paint2_linear_284_616)"/>
<path d="M7.21229 5.20166C7.78447 5.20166 8.24832 4.734 8.24832 4.15711C8.24832 3.58021 7.78447 3.11255 7.21229 3.11255C6.64011 3.11255 6.17627 3.58021 6.17627 4.15711C6.17627 4.734 6.64011 5.20166 7.21229 5.20166Z" fill="url(#paint3_linear_284_616)"/>
<path d="M10.2694 3.11523C10.0642 3.11523 9.86371 3.17657 9.69317 3.29149C9.52263 3.40641 9.38972 3.56975 9.31127 3.76083C9.23281 3.95192 9.21233 4.16218 9.25241 4.36501C9.2925 4.56783 9.39135 4.75412 9.53645 4.90029C9.68156 5.04647 9.86641 5.14597 10.0676 5.1862C10.2688 5.22644 10.4773 5.20561 10.6668 5.12634C10.8563 5.04707 11.0181 4.91292 11.132 4.74088C11.2458 4.56883 11.3065 4.36661 11.3063 4.15979C11.3063 4.02254 11.2795 3.88664 11.2273 3.75985C11.1752 3.63305 11.0988 3.51786 11.0025 3.42085C10.9062 3.32385 10.7919 3.24692 10.6661 3.19448C10.5403 3.14204 10.4055 3.11511 10.2694 3.11523Z" fill="url(#paint4_linear_284_616)"/>
</g>
<defs>
<linearGradient id="paint0_linear_284_616" x1="9.5461" y1="14.9316" x2="29.8507" y2="33.0292" gradientUnits="userSpaceOnUse">
<stop stop-color="#7D7BEB"/>
<stop offset="0.21" stop-color="#817BEA"/>
<stop offset="0.41" stop-color="#8C7BE8"/>
<stop offset="0.59" stop-color="#9E7CE5"/>
<stop offset="0.77" stop-color="#B87DE1"/>
<stop offset="0.95" stop-color="#D97EDB"/>
<stop offset="1" stop-color="#E57ED9"/>
</linearGradient>
<linearGradient id="paint1_linear_284_616" x1="-1220.25" y1="-783.464" x2="14016" y2="13918.7" gradientUnits="userSpaceOnUse">
<stop stop-color="#7D7BEB"/>
<stop offset="0.21" stop-color="#817BEA"/>
<stop offset="0.41" stop-color="#8C7BE8"/>
<stop offset="0.59" stop-color="#9E7CE5"/>
<stop offset="0.77" stop-color="#B87DE1"/>
<stop offset="0.95" stop-color="#D97EDB"/>
<stop offset="1" stop-color="#E57ED9"/>
</linearGradient>
<linearGradient id="paint2_linear_284_616" x1="-68.5314" y1="-46.3775" x2="913.015" y2="790.572" gradientUnits="userSpaceOnUse">
<stop stop-color="#7D7BEB"/>
<stop offset="0.21" stop-color="#817BEA"/>
<stop offset="0.41" stop-color="#8C7BE8"/>
<stop offset="0.59" stop-color="#9E7CE5"/>
<stop offset="0.77" stop-color="#B87DE1"/>
<stop offset="0.95" stop-color="#D97EDB"/>
<stop offset="1" stop-color="#E57ED9"/>
</linearGradient>
<linearGradient id="paint3_linear_284_616" x1="-35.8241" y1="-81.037" x2="944.862" y2="755.178" gradientUnits="userSpaceOnUse">
<stop stop-color="#7D7BEB"/>
<stop offset="0.21" stop-color="#817BEA"/>
<stop offset="0.41" stop-color="#8C7BE8"/>
<stop offset="0.59" stop-color="#9E7CE5"/>
<stop offset="0.77" stop-color="#B87DE1"/>
<stop offset="0.95" stop-color="#D97EDB"/>
<stop offset="1" stop-color="#E57ED9"/>
</linearGradient>
<linearGradient id="paint4_linear_284_616" x1="-3.19003" y1="-115.839" x2="978.356" y2="721.112" gradientUnits="userSpaceOnUse">
<stop stop-color="#7D7BEB"/>
<stop offset="0.21" stop-color="#817BEA"/>
<stop offset="0.41" stop-color="#8C7BE8"/>
<stop offset="0.59" stop-color="#9E7CE5"/>
<stop offset="0.77" stop-color="#B87DE1"/>
<stop offset="0.95" stop-color="#D97EDB"/>
<stop offset="1" stop-color="#E57ED9"/>
</linearGradient>
<clipPath id="clip0_284_616">
<rect width="36" height="35" fill="white"/>
</clipPath>
</defs>
</svg>
