<svg width="34" height="34" viewBox="0 0 34 34" fill="none" xmlns="http://www.w3.org/2000/svg">
<g clip-path="url(#clip0_284_622)">
<path d="M8.82636 22.0805C8.74534 21.9965 8.64831 21.9297 8.54099 21.8838C8.43368 21.8379 8.31826 21.814 8.20155 21.8135C8.08484 21.813 7.9692 21.8358 7.86147 21.8807C7.75375 21.9256 7.65611 21.9916 7.57433 22.0748C7.49255 22.158 7.42828 22.2568 7.38532 22.3653C7.34237 22.4737 7.32159 22.5897 7.32422 22.7063C7.32686 22.823 7.35284 22.9379 7.40065 23.0443C7.44846 23.1507 7.51712 23.2465 7.60257 23.326L9.9207 25.6025H7.31747C6.69871 25.6017 6.10553 25.3556 5.668 24.9183C5.23047 24.481 4.9843 23.8881 4.98346 23.2696V19.0316C4.98346 18.8 4.89142 18.5779 4.7276 18.4142C4.56377 18.2504 4.34158 18.1584 4.10989 18.1584C3.87821 18.1584 3.65602 18.2504 3.49219 18.4142C3.32836 18.5779 3.23633 18.8 3.23633 19.0316V23.2696C3.23759 24.3511 3.66797 25.3879 4.43306 26.1527C5.19815 26.9174 6.23547 27.3476 7.31747 27.3488H9.84764L7.58589 29.6873C7.42487 29.8539 7.33667 30.0777 7.34069 30.3093C7.34471 30.5409 7.44063 30.7615 7.60734 30.9224C7.77404 31.0834 7.99789 31.1715 8.22963 31.1675C8.46137 31.1635 8.68201 31.0676 8.84304 30.901L12.6065 27.0067C12.7666 26.8411 12.8548 26.619 12.8518 26.3887C12.8489 26.1584 12.755 25.9386 12.5906 25.7772L8.82636 22.0805Z" fill="url(#paint0_linear_284_622)"/>
<path d="M23.6095 22.9078L20.3305 26.1282C20.244 26.0916 20.1512 26.0725 20.0573 26.0718C19.8792 26.0716 19.7082 26.1411 19.5808 26.2655C19.5179 26.3262 19.4678 26.399 19.4336 26.4794C19.3995 26.5599 19.3818 26.6464 19.3818 26.7338C19.3818 26.8212 19.3995 26.9078 19.4336 26.9882C19.4678 27.0687 19.5179 27.1414 19.5808 27.2021C19.7084 27.3266 19.879 27.3971 20.0573 27.399C20.1515 27.4016 20.245 27.3823 20.3305 27.3426L23.6063 30.5709C23.5692 30.6558 23.5497 30.7474 23.5492 30.84C23.5494 30.9274 23.5671 31.0139 23.601 31.0944C23.6349 31.1749 23.6845 31.2479 23.7469 31.3092C23.8738 31.4344 24.045 31.5046 24.2234 31.5044C24.4018 31.5033 24.5728 31.4327 24.6999 31.3076C24.7622 31.2466 24.8119 31.1739 24.8461 31.0936C24.8803 31.0134 24.8984 30.9272 24.8992 30.84C24.9008 30.7469 24.8804 30.6547 24.8397 30.5709L28.1179 27.3395C28.2044 27.376 28.2972 27.3952 28.3911 27.3958C28.5694 27.3958 28.7406 27.3257 28.8676 27.2006C28.9299 27.1391 28.9794 27.0659 29.0134 26.9853C29.0473 26.9047 29.065 26.8181 29.0653 26.7306C29.0642 26.644 29.0458 26.5586 29.0113 26.4791C28.9768 26.3997 28.9269 26.3279 28.8644 26.2679C28.7367 26.1446 28.5654 26.077 28.3879 26.0797C28.2937 26.0771 28.2002 26.0964 28.1147 26.1361L24.8412 22.9062C24.8787 22.821 24.8989 22.7293 24.9008 22.6363C24.9006 22.5489 24.8831 22.4624 24.8491 22.3819C24.8152 22.3014 24.7655 22.2284 24.7031 22.1672C24.5761 22.0421 24.4049 21.9719 24.2266 21.9719C24.0481 21.9733 23.8771 22.0442 23.7501 22.1696C23.6877 22.2308 23.638 22.3038 23.6039 22.3843C23.5699 22.4648 23.5521 22.5513 23.5515 22.6387C23.5496 22.7317 23.5694 22.8239 23.6095 22.9078ZM20.6839 27.0037L21.8703 27.2895C21.9022 27.416 21.9761 27.528 22.08 27.607C22.1842 27.6865 22.3118 27.7292 22.4429 27.7284H22.4516L23.3903 29.6803L20.6839 27.0037ZM27.7701 27.0116L25.0636 29.6787L26.0023 27.7268H26.0102C26.1411 27.726 26.2681 27.6828 26.3724 27.6038C26.476 27.5243 26.5503 27.4126 26.5836 27.2863L27.7701 27.0005V27.0116ZM24.4601 23.2578C24.4688 23.2578 24.4767 23.2491 24.4855 23.2491L27.7637 26.4798C27.7605 26.488 27.7584 26.4965 27.7574 26.5052L26.4867 26.8092C26.4311 26.7349 26.3591 26.6743 26.2763 26.6322C26.193 26.5899 26.1012 26.5671 26.0079 26.5655C25.8707 26.5651 25.7377 26.6128 25.6322 26.7005L24.8047 26.321V26.302C24.8054 26.1908 24.7732 26.0819 24.7119 25.9891C24.6507 25.8963 24.5634 25.8237 24.4609 25.7805L24.4601 23.2578ZM24.2218 26.8854C24.3545 26.8837 24.4831 26.8395 24.5887 26.7592L25.4321 27.1474V27.1553C25.4314 27.2911 25.4799 27.4225 25.5687 27.5252L24.271 30.1844H24.1773L22.8964 27.5173C22.9842 27.4141 23.0318 27.2828 23.0306 27.1474L23.8668 26.76C23.9707 26.8396 24.0973 26.8841 24.2282 26.887L24.2218 26.8854ZM23.9582 23.2436C23.9582 23.2491 23.9637 23.2491 23.9724 23.2578V25.7821C23.8717 25.8277 23.786 25.9009 23.7252 25.9932C23.6643 26.0855 23.6308 26.1931 23.6286 26.3036V26.3195L22.8011 26.6981C22.6957 26.6108 22.5631 26.5631 22.4262 26.5632C22.3325 26.5639 22.2402 26.5867 22.157 26.6298C22.0743 26.6728 22.0029 26.7348 21.949 26.8108L20.6958 26.5123C20.6958 26.5036 20.687 26.4957 20.687 26.4782L23.9582 23.2436Z" fill="url(#paint1_linear_284_622)"/>
<path d="M33.7879 19.7818C33.6542 19.6493 33.4735 19.5748 33.2852 19.5746H33.2789L24.0246 19.6477L22.5102 18.1331C22.4438 18.0667 22.3649 18.014 22.2781 17.978C22.1913 17.9421 22.0983 17.9236 22.0043 17.9236H15.4335C15.2439 17.9236 15.0621 17.9989 14.9281 18.1328C14.7941 18.2668 14.7188 18.4485 14.7188 18.638V33.2856C14.7188 33.4751 14.7941 33.6568 14.9281 33.7908C15.0621 33.9248 15.2439 34 15.4335 34H33.2852C33.4748 34 33.6566 33.9248 33.7906 33.7908C33.9246 33.6568 34 33.4751 34 33.2856V20.2891C33.9999 20.1947 33.9811 20.1013 33.9447 20.0142C33.9083 19.9272 33.855 19.8482 33.7879 19.7818ZM32.5705 32.5712H16.1482V19.3524H21.7073L23.2241 20.8693C23.2905 20.9358 23.3694 20.9885 23.4562 21.0244C23.543 21.0604 23.636 21.0789 23.73 21.0789H23.7355L32.5689 21.009L32.5705 32.5712Z" fill="url(#paint2_linear_284_622)"/>
<path d="M19.2804 15.362V2.36467C19.2804 2.27039 19.2617 2.17703 19.2255 2.08999C19.1892 2.00295 19.1361 1.92395 19.0691 1.85754C19.0021 1.79113 18.9227 1.73862 18.8353 1.70305C18.748 1.66747 18.6544 1.64954 18.5601 1.65027L9.30586 1.7233L7.79142 0.209558C7.72502 0.143106 7.64616 0.0903924 7.55936 0.0544341C7.47255 0.0184758 7.37951 -2.16884e-05 7.28554 1.90837e-08H0.714736C0.525176 1.90837e-08 0.34338 0.0752672 0.209341 0.209244C0.0753023 0.34322 0 0.524931 0 0.714402L0 15.362C0 15.5515 0.0753023 15.7332 0.209341 15.8672C0.34338 16.0012 0.525176 16.0764 0.714736 16.0764H18.5657C18.7552 16.0764 18.937 16.0012 19.0711 15.8672C19.2051 15.7332 19.2804 15.5515 19.2804 15.362ZM17.8509 14.6476H1.42947V1.4288H6.98853L8.50536 2.94572C8.57224 3.01302 8.65199 3.06619 8.73985 3.10205C8.82771 3.13792 8.9219 3.15575 9.01679 3.15448L17.8493 3.08542L17.8509 14.6476Z" fill="url(#paint3_linear_284_622)"/>
<path d="M5.84717 6.48111V10.8398C5.84759 11.2155 5.99705 11.5757 6.26278 11.8415C6.52851 12.1072 6.88882 12.2568 7.26473 12.2574H11.6254C12.0015 12.257 12.362 12.1075 12.6279 11.8418C12.8938 11.576 13.0433 11.2156 13.0438 10.8398V6.48111C13.0431 6.10538 12.8935 5.74523 12.6276 5.47962C12.3617 5.21402 12.0013 5.06463 11.6254 5.06421H7.26473C6.8889 5.06463 6.52858 5.21404 6.26283 5.47967C5.99707 5.7453 5.84759 6.10545 5.84717 6.48111ZM12.2496 6.48111V10.8398C12.2494 11.0052 12.1836 11.1637 12.0666 11.2807C11.9495 11.3977 11.7909 11.4635 11.6254 11.4637H7.26473C7.09938 11.4632 6.94094 11.3974 6.82409 11.2804C6.70725 11.1635 6.64153 11.005 6.64132 10.8398V6.48111C6.64153 6.31591 6.70728 6.15754 6.82414 6.04073C6.94101 5.92392 7.09945 5.8582 7.26473 5.85799H11.6254C11.7908 5.8582 11.9493 5.92389 12.0663 6.04068C12.1833 6.15747 12.2492 6.31584 12.2496 6.48111Z" fill="url(#paint4_linear_284_622)"/>
</g>
<defs>
<linearGradient id="paint0_linear_284_622" x1="-7.13211" y1="12.067" x2="24.9876" y2="42.298" gradientUnits="userSpaceOnUse">
<stop stop-color="#7D7BEB"/>
<stop offset="0.21" stop-color="#817BEA"/>
<stop offset="0.41" stop-color="#8C7BE8"/>
<stop offset="0.59" stop-color="#9E7CE5"/>
<stop offset="0.77" stop-color="#B87DE1"/>
<stop offset="0.95" stop-color="#D97EDB"/>
<stop offset="1" stop-color="#E57ED9"/>
</linearGradient>
<linearGradient id="paint1_linear_284_622" x1="51.7248" y1="527.195" x2="3912.09" y2="4216.4" gradientUnits="userSpaceOnUse">
<stop stop-color="#7D7BEB"/>
<stop offset="0.21" stop-color="#817BEA"/>
<stop offset="0.41" stop-color="#8C7BE8"/>
<stop offset="0.59" stop-color="#9E7CE5"/>
<stop offset="0.77" stop-color="#B87DE1"/>
<stop offset="0.95" stop-color="#D97EDB"/>
<stop offset="1" stop-color="#E57ED9"/>
</linearGradient>
<linearGradient id="paint2_linear_284_622" x1="88.1801" y1="861.937" x2="6558.35" y2="8161.84" gradientUnits="userSpaceOnUse">
<stop stop-color="#7D7BEB"/>
<stop offset="0.21" stop-color="#817BEA"/>
<stop offset="0.41" stop-color="#8C7BE8"/>
<stop offset="0.59" stop-color="#9E7CE5"/>
<stop offset="0.77" stop-color="#B87DE1"/>
<stop offset="0.95" stop-color="#D97EDB"/>
<stop offset="1" stop-color="#E57ED9"/>
</linearGradient>
<linearGradient id="paint3_linear_284_622" x1="568.579" y1="405.126" x2="7038.56" y2="7704.88" gradientUnits="userSpaceOnUse">
<stop stop-color="#7D7BEB"/>
<stop offset="0.21" stop-color="#817BEA"/>
<stop offset="0.41" stop-color="#8C7BE8"/>
<stop offset="0.59" stop-color="#9E7CE5"/>
<stop offset="0.77" stop-color="#B87DE1"/>
<stop offset="0.95" stop-color="#D97EDB"/>
<stop offset="1" stop-color="#E57ED9"/>
</linearGradient>
<linearGradient id="paint4_linear_284_622" x1="218.938" y1="185.399" x2="3129.69" y2="2924.93" gradientUnits="userSpaceOnUse">
<stop stop-color="#7D7BEB"/>
<stop offset="0.21" stop-color="#817BEA"/>
<stop offset="0.41" stop-color="#8C7BE8"/>
<stop offset="0.59" stop-color="#9E7CE5"/>
<stop offset="0.77" stop-color="#B87DE1"/>
<stop offset="0.95" stop-color="#D97EDB"/>
<stop offset="1" stop-color="#E57ED9"/>
</linearGradient>
<clipPath id="clip0_284_622">
<rect width="34" height="34" fill="white"/>
</clipPath>
</defs>
</svg>
