<svg width="34" height="34" viewBox="0 0 34 34" fill="none" xmlns="http://www.w3.org/2000/svg">
<path d="M17 0C7.62594 0 0 7.62594 0 17C0 26.3741 7.62594 34 17 34C26.3741 34 34 26.3741 34 17C34 7.62594 26.3741 0 17 0ZM17 31.3607C9.08197 31.3607 2.63934 24.9189 2.63934 17C2.63934 9.08109 9.08197 2.63934 17 2.63934C24.918 2.63934 31.3607 9.08197 31.3607 17C31.3607 24.918 24.9189 31.3607 17 31.3607Z" fill="url(#paint0_linear_284_603)"/>
<path d="M23.3196 15.836H20.9513C20.7115 15.0687 20.2318 14.3988 19.5826 13.9247C18.9334 13.4507 18.1492 13.1976 17.3454 13.2029C16.5416 13.2081 15.7607 13.4713 15.1177 13.9537C14.4748 14.4362 14.0038 15.1123 13.774 15.8826H11.4373C10.8595 15.8826 10.3053 15.6531 9.8967 15.2445C9.4881 14.8359 9.25855 14.2817 9.25855 13.7038C9.25855 13.126 9.4881 12.5718 9.8967 12.1632C10.3053 11.7546 10.8595 11.5251 11.4373 11.5251H22.7944V9.06168H18.4307V7.33643H15.9673V9.06168H11.4373C10.828 9.06168 10.2246 9.18169 9.66169 9.41487C9.09874 9.64805 8.58724 9.98983 8.15638 10.4207C7.72552 10.8516 7.38374 11.3631 7.15056 11.926C6.91738 12.489 6.79736 13.0923 6.79736 13.7016C6.79736 14.311 6.91738 14.9143 7.15056 15.4773C7.38374 16.0402 7.72552 16.5517 8.15638 16.9826C8.58724 17.4135 9.09874 17.7552 9.66169 17.9884C10.2246 18.2216 10.828 18.3416 11.4373 18.3416H13.8893C14.1685 19.0431 14.653 19.6441 15.2793 20.0658C15.9056 20.4876 16.6446 20.7105 17.3997 20.7055C18.1547 20.7004 18.8907 20.4677 19.5113 20.0376C20.132 19.6075 20.6084 19.0002 20.8782 18.295H23.324C23.6135 18.2892 23.9012 18.3411 24.1703 18.4479C24.4394 18.5546 24.6846 18.714 24.8913 18.9166C25.0981 19.1193 25.2623 19.3612 25.3745 19.6281C25.4866 19.895 25.5444 20.1816 25.5444 20.4711C25.5444 20.7606 25.4866 21.0472 25.3745 21.3142C25.2623 21.5811 25.0981 21.8229 24.8913 22.0256C24.6846 22.2282 24.4394 22.3876 24.1703 22.4943C23.9012 22.6011 23.6135 22.6531 23.324 22.6473H11.9582V25.1106H15.9673V26.6415H18.4307V25.1106H23.3196C23.9343 25.1191 24.5445 25.0054 25.1148 24.776C25.6851 24.5466 26.2042 24.2062 26.6418 23.7746C27.0795 23.3429 27.427 22.8286 27.6642 22.2615C27.9013 21.6944 28.0235 21.0858 28.0235 20.4711C28.0235 19.8564 27.9013 19.2478 27.6642 18.6807C27.427 18.1136 27.0795 17.5993 26.6418 17.1677C26.2042 16.736 25.6851 16.3956 25.1148 16.1662C24.5445 15.9369 23.9343 15.8231 23.3196 15.8316V15.836ZM17.3697 18.2466C17.1146 18.2466 16.8652 18.1709 16.6531 18.0292C16.441 17.8875 16.2757 17.6861 16.1781 17.4504C16.0805 17.2147 16.0549 16.9554 16.1047 16.7052C16.1545 16.455 16.2773 16.2252 16.4577 16.0448C16.6381 15.8645 16.8679 15.7416 17.1181 15.6919C17.3683 15.6421 17.6276 15.6676 17.8633 15.7652C18.0989 15.8629 18.3004 16.0282 18.4421 16.2403C18.5838 16.4524 18.6594 16.7017 18.6594 16.9568C18.6585 17.2984 18.5222 17.6256 18.2805 17.8669C18.0387 18.1081 17.7112 18.2437 17.3697 18.2439V18.2466Z" fill="url(#paint1_linear_284_603)"/>
<defs>
<linearGradient id="paint0_linear_284_603" x1="4.1772" y1="6.41096" x2="27.3814" y2="25.5735" gradientUnits="userSpaceOnUse">
<stop stop-color="#7D7BEB"/>
<stop offset="0.21" stop-color="#817BEA"/>
<stop offset="0.41" stop-color="#8C7BE8"/>
<stop offset="0.59" stop-color="#9E7CE5"/>
<stop offset="0.77" stop-color="#B87DE1"/>
<stop offset="0.95" stop-color="#D97EDB"/>
<stop offset="1" stop-color="#E57ED9"/>
</linearGradient>
<linearGradient id="paint1_linear_284_603" x1="1040.93" y1="1384.94" x2="6202.09" y2="6071.48" gradientUnits="userSpaceOnUse">
<stop stop-color="#7D7BEB"/>
<stop offset="0.21" stop-color="#817BEA"/>
<stop offset="0.41" stop-color="#8C7BE8"/>
<stop offset="0.59" stop-color="#9E7CE5"/>
<stop offset="0.77" stop-color="#B87DE1"/>
<stop offset="0.95" stop-color="#D97EDB"/>
<stop offset="1" stop-color="#E57ED9"/>
</linearGradient>
</defs>
</svg>
