<svg width="34" height="39" viewBox="0 0 34 39" fill="none" xmlns="http://www.w3.org/2000/svg">
<path d="M24.8967 20.6142C25.2348 20.6138 25.5593 20.4818 25.8006 20.2466C25.9189 20.1309 26.013 19.9931 26.0772 19.841C26.1414 19.689 26.1746 19.5258 26.1748 19.3608C26.1726 19.1978 26.138 19.0367 26.0729 18.887C26.0078 18.7373 25.9135 18.6019 25.7954 18.4885C25.5539 18.2582 25.2314 18.1307 24.8967 18.1332C24.7183 18.1279 24.541 18.1631 24.3784 18.2362L18.1651 12.1526C18.237 11.9927 18.2758 11.82 18.2791 11.6449C18.2785 11.4801 18.2449 11.3171 18.1805 11.1653C18.1161 11.0134 18.0221 10.8758 17.9039 10.7602C17.6633 10.5238 17.3383 10.3916 17 10.3926C16.6616 10.3935 16.3374 10.5276 16.0982 10.7654C15.8599 10.9988 15.7246 11.3166 15.7219 11.649C15.7178 11.8244 15.7551 11.9982 15.8307 12.1567L9.62157 18.229C9.45706 18.1619 9.28109 18.127 9.10328 18.126C8.76587 18.1263 8.44192 18.2575 8.20041 18.4916C8.08113 18.6059 7.98625 18.743 7.92144 18.8945C7.85664 19.0461 7.82324 19.2091 7.82324 19.3737C7.82324 19.5384 7.85664 19.7014 7.92144 19.8529C7.98625 20.0045 8.08113 20.1415 8.20041 20.2558C8.44088 20.4909 8.7639 20.6238 9.10121 20.6266C9.27966 20.6325 9.45706 20.5972 9.6195 20.5236L15.8286 26.6061C15.7591 26.7663 15.7221 26.9385 15.7198 27.1129C15.7204 27.2776 15.7539 27.4407 15.8183 27.5925C15.8827 27.7443 15.9768 27.882 16.095 27.9975C16.3347 28.2343 16.6589 28.3671 16.9969 28.3671C17.3348 28.3671 17.659 28.2343 17.8987 27.9975C18.1374 27.7647 18.2735 27.4473 18.2771 27.1149C18.2799 26.9394 18.2408 26.7658 18.163 26.6082L24.3774 20.5205C24.5426 20.5855 24.7191 20.6173 24.8967 20.6142ZM17.4499 12.819C17.4654 12.819 17.481 12.8035 17.4975 12.8035L23.7119 18.8912C23.7047 18.9064 23.7005 18.9229 23.6994 18.9396L21.2863 19.5122C21.1808 19.3718 21.0443 19.2572 20.8872 19.1775C20.7297 19.0979 20.556 19.0549 20.3793 19.0519C20.1191 19.0508 19.867 19.1408 19.6671 19.3063L18.0977 18.5915V18.5555C18.0995 18.3468 18.0385 18.1424 17.9225 17.9684C17.8068 17.7927 17.6413 17.6551 17.4468 17.573L17.4499 12.819ZM16.5035 12.7932C16.4983 12.8035 16.5149 12.8035 16.5304 12.819V17.576C16.3399 17.6635 16.1777 17.8018 16.0619 17.9756C15.947 18.149 15.8838 18.3511 15.8794 18.5586V18.5895L14.31 19.3032C14.1106 19.1378 13.8587 19.0477 13.5989 19.0488C13.4214 19.0496 13.2466 19.0923 13.0889 19.1734C12.9321 19.2542 12.7973 19.3715 12.6961 19.5153L10.3119 18.9448C10.3119 18.9283 10.2964 18.9128 10.2964 18.8809L16.5035 12.7932ZM10.285 19.8768L12.5344 20.4155C12.5951 20.6528 12.735 20.8627 12.9314 21.0107C13.1292 21.1602 13.3712 21.2406 13.6197 21.2394H13.6363L15.4161 24.9181L10.285 19.8768ZM17.085 25.8718H16.9067L14.48 20.8449C14.6474 20.6504 14.739 20.4026 14.7382 20.1467L16.3231 19.4175C16.5189 19.566 16.7569 19.6492 17.0031 19.6554C17.2548 19.6514 17.4987 19.5681 17.6997 19.4175L19.2857 20.1467V20.1621C19.2846 20.4178 19.3762 20.6653 19.5438 20.8593L17.085 25.8718ZM23.7191 19.8923L18.5891 24.9181L20.3679 21.2394H20.3844C20.6322 21.2386 20.8729 21.1572 21.0696 21.0076C21.2656 20.86 21.4064 20.6516 21.4697 20.4155L23.7171 19.8768L23.7191 19.8923Z" fill="url(#paint0_linear_284_628)"/>
<path d="M1.49913 13.7872C1.64887 13.7872 1.79714 13.7579 1.93548 13.701C2.07382 13.6441 2.19952 13.5606 2.3054 13.4554C2.41129 13.3502 2.49528 13.2253 2.55258 13.0879C2.60988 12.9504 2.63937 12.8031 2.63937 12.6544V10.2454C2.6402 9.44291 2.96143 8.6735 3.53259 8.10603C4.10375 7.53856 4.87816 7.2194 5.6859 7.21858H29.8155L26.7897 10.1723C26.5835 10.3848 26.4689 10.6688 26.4702 10.9639C26.4716 11.259 26.5888 11.542 26.797 11.7526C27.0051 11.9631 27.2878 12.0847 27.5848 12.0913C27.8817 12.098 28.1696 11.9892 28.3871 11.7882L33.2995 6.99303C33.5141 6.78372 33.6369 6.49863 33.641 6.19983C33.645 5.90103 33.5301 5.61274 33.3213 5.39773L28.4089 0.35125C28.1988 0.135056 27.911 0.0106156 27.6086 0.00530419C27.3062 -7.21822e-06 27.0141 0.114245 26.7965 0.322928C26.5789 0.53161 26.4536 0.817629 26.4483 1.11806C26.4429 1.41849 26.5579 1.70873 26.768 1.92493L29.7171 4.95796H5.6859C4.27449 4.95959 2.92128 5.51703 1.92278 6.50812C0.924274 7.49921 0.361903 8.84314 0.358887 10.2454V12.6544C0.358887 12.9548 0.479019 13.243 0.692856 13.4554C0.906694 13.6679 1.19672 13.7872 1.49913 13.7872Z" fill="url(#paint1_linear_284_628)"/>
<path d="M32.5013 25.3159C32.2264 25.3159 31.9628 25.4244 31.7684 25.6176C31.574 25.8107 31.4648 26.0727 31.4648 26.3458V28.7547C31.4637 29.5845 31.1314 30.3799 30.5409 30.9667C29.9503 31.5534 29.1497 31.8835 28.3146 31.8846H4.0792L7.21072 28.8279C7.32227 28.7248 7.41188 28.6005 7.47429 28.4624C7.53669 28.3244 7.57061 28.1753 7.57405 28.0239C7.57748 27.8726 7.55037 27.7221 7.4943 27.5814C7.43823 27.4407 7.35434 27.3125 7.24759 27.2046C7.14085 27.0966 7.0134 27.0109 6.87279 26.9527C6.73217 26.8945 6.58124 26.8648 6.4289 26.8655C6.27656 26.8662 6.1259 26.8972 5.98583 26.9567C5.84575 27.0162 5.7191 27.103 5.61335 27.212L0.699932 32.0071C0.48541 32.2166 0.362865 32.5017 0.358982 32.8005C0.355099 33.0993 0.470193 33.3876 0.6792 33.6024L5.59158 38.6541C5.80217 38.8703 6.09057 38.9945 6.39334 38.9994C6.69612 39.0043 6.98846 38.8896 7.20606 38.6803C7.42366 38.4711 7.54869 38.1846 7.55365 37.8837C7.5586 37.5829 7.44308 37.2925 7.23249 37.0763L4.18286 33.9444H28.3146C29.6994 33.9427 31.027 33.3954 32.0062 32.4225C32.9854 31.4497 33.5363 30.1306 33.5379 28.7547V26.3458C33.5379 26.2106 33.5111 26.0766 33.459 25.9517C33.4069 25.8267 33.3306 25.7132 33.2343 25.6176C33.1381 25.5219 33.0238 25.4461 32.898 25.3943C32.7723 25.3426 32.6375 25.3159 32.5013 25.3159Z" fill="url(#paint2_linear_284_628)"/>
<path d="M1.4989 19.0705C2.32672 19.0705 2.9978 18.4037 2.9978 17.5813C2.9978 16.7588 2.32672 16.092 1.4989 16.092C0.671081 16.092 0 16.7588 0 17.5813C0 18.4037 0.671081 19.0705 1.4989 19.0705Z" fill="url(#paint3_linear_284_628)"/>
<path d="M32.5009 22.5175C33.3287 22.5175 33.9998 21.8508 33.9998 21.0283C33.9998 20.2058 33.3287 19.5391 32.5009 19.5391C31.673 19.5391 31.002 20.2058 31.002 21.0283C31.002 21.8508 31.673 22.5175 32.5009 22.5175Z" fill="url(#paint4_linear_284_628)"/>
<defs>
<linearGradient id="paint0_linear_284_628" x1="-3.77629" y1="-0.515063" x2="38.5225" y2="40.5064" gradientUnits="userSpaceOnUse">
<stop stop-color="#7D7BEB"/>
<stop offset="0.21" stop-color="#817BEA"/>
<stop offset="0.41" stop-color="#8C7BE8"/>
<stop offset="0.59" stop-color="#9E7CE5"/>
<stop offset="0.77" stop-color="#B87DE1"/>
<stop offset="0.95" stop-color="#D97EDB"/>
<stop offset="1" stop-color="#E57ED9"/>
</linearGradient>
<linearGradient id="paint1_linear_284_628" x1="423.375" y1="-771.793" x2="4532.37" y2="8788.73" gradientUnits="userSpaceOnUse">
<stop stop-color="#7D7BEB"/>
<stop offset="0.21" stop-color="#817BEA"/>
<stop offset="0.41" stop-color="#8C7BE8"/>
<stop offset="0.59" stop-color="#9E7CE5"/>
<stop offset="0.77" stop-color="#B87DE1"/>
<stop offset="0.95" stop-color="#D97EDB"/>
<stop offset="1" stop-color="#E57ED9"/>
</linearGradient>
<linearGradient id="paint2_linear_284_628" x1="-2890.86" y1="677.068" x2="1177.29" y2="10181.4" gradientUnits="userSpaceOnUse">
<stop stop-color="#7D7BEB"/>
<stop offset="0.21" stop-color="#817BEA"/>
<stop offset="0.41" stop-color="#8C7BE8"/>
<stop offset="0.59" stop-color="#9E7CE5"/>
<stop offset="0.77" stop-color="#B87DE1"/>
<stop offset="0.95" stop-color="#D97EDB"/>
<stop offset="1" stop-color="#E57ED9"/>
</linearGradient>
<linearGradient id="paint3_linear_284_628" x1="-298.941" y1="196.854" x2="924.34" y2="1383.17" gradientUnits="userSpaceOnUse">
<stop stop-color="#7D7BEB"/>
<stop offset="0.21" stop-color="#817BEA"/>
<stop offset="0.41" stop-color="#8C7BE8"/>
<stop offset="0.59" stop-color="#9E7CE5"/>
<stop offset="0.77" stop-color="#B87DE1"/>
<stop offset="0.95" stop-color="#D97EDB"/>
<stop offset="1" stop-color="#E57ED9"/>
</linearGradient>
<linearGradient id="paint4_linear_284_628" x1="113.532" y1="-193.093" x2="1336.84" y2="993.25" gradientUnits="userSpaceOnUse">
<stop stop-color="#7D7BEB"/>
<stop offset="0.21" stop-color="#817BEA"/>
<stop offset="0.41" stop-color="#8C7BE8"/>
<stop offset="0.59" stop-color="#9E7CE5"/>
<stop offset="0.77" stop-color="#B87DE1"/>
<stop offset="0.95" stop-color="#D97EDB"/>
<stop offset="1" stop-color="#E57ED9"/>
</linearGradient>
</defs>
</svg>
