<svg width="1080" height="1080" viewBox="0 0 1080 1080" fill="none" xmlns="http://www.w3.org/2000/svg">
<rect x="10" y="10" width="1060" height="1060" rx="530" fill="url(#paint0_linear_19_14)"/>
<path d="M626.065 888.47C623.151 885.027 619.178 879.728 617.588 876.55C614.144 869.927 615.204 867.013 639.576 811.382C647.788 792.574 657.589 766.348 661.298 753.102C670.305 719.989 676.663 706.743 685.14 703.564C688.849 701.975 700.505 700.915 710.836 700.915C733.883 700.915 772.56 696.412 779.182 692.968C786.07 688.994 790.308 673.1 788.454 656.941C787.13 644.755 787.659 642.106 793.487 635.218C801.435 625.681 801.435 625.417 794.812 616.675L789.514 610.052L794.812 604.224C801.17 597.601 801.435 590.449 796.136 580.117C792.428 573.23 792.428 572.17 796.401 569.786C810.177 561.574 822.627 550.447 823.157 545.944C823.687 542.235 819.978 537.732 811.236 531.374C792.958 517.864 771.765 497.201 765.407 487.134C759.314 477.598 759.579 470.71 765.672 448.988L769.116 437.067L751.897 407.927C742.36 391.767 733.618 375.078 732.558 370.31C730.174 359.449 706.862 323.686 698.65 318.123C686.2 310.176 661.033 303.023 630.569 299.314C613.88 296.93 586.064 292.957 568.58 289.778C517.188 280.771 475.862 286.864 445.928 307.792C439.04 312.56 427.384 320.772 419.967 325.805C412.814 330.839 398.509 343.289 388.178 353.886C368.31 374.284 359.038 380.376 348.706 380.376C344.998 380.376 340.229 383.025 337.315 386.469C334.666 389.913 328.838 394.417 324.6 396.536C320.096 398.655 314.268 404.748 311.354 410.311C307.911 416.404 304.202 420.113 300.758 420.113C297.844 420.113 293.87 421.172 292.016 422.497C289.102 424.086 289.367 425.146 292.811 426.47C296.784 427.795 294.93 430.709 282.744 443.689C267.38 459.849 260.492 475.743 263.671 488.194C264.466 491.903 263.671 496.406 261.817 498.79C259.167 501.969 259.432 503.294 262.876 505.148C266.85 507.267 266.585 509.122 260.757 522.102C254.134 536.407 253.339 546.474 258.903 545.414C260.492 545.149 262.346 550.183 263.406 556.805C265.79 574.819 274.267 587.8 289.102 596.542C299.963 602.899 302.612 605.813 304.732 614.82C312.149 645.285 317.447 654.821 327.779 656.941C334.401 658.53 336.521 661.974 345.528 683.696C356.389 710.452 369.104 725.552 383.409 728.996C387.648 730.055 398.509 735.353 407.516 740.917C422.616 749.923 439.04 756.016 440.894 753.367C441.424 753.102 444.603 739.857 448.047 724.492L454.67 696.412L444.073 684.491C431.358 670.716 415.993 640.516 413.874 626.211C412.284 614.025 418.377 610.052 426.854 617.734C433.477 623.827 452.286 661.444 454.67 673.1C455.464 678.133 457.054 682.372 458.114 682.372C458.908 682.372 463.412 672.835 467.915 661.179C475.862 640.781 476.127 639.457 472.419 625.946C468.18 608.992 463.677 572.435 463.677 552.037C463.677 541.706 465.001 535.613 467.915 532.699C477.982 522.897 484.075 540.116 486.989 584.886L488.843 614.555L501.558 593.363L514.274 572.435L514.804 530.05C515.334 490.843 515.864 486.605 521.956 474.419C525.665 467.266 530.698 460.909 533.347 460.379C537.321 459.584 537.851 462.233 537.851 486.87C537.851 505.413 536.261 519.983 532.818 532.169C530.169 541.97 528.844 549.918 529.904 549.388C530.963 548.858 538.911 540.381 547.388 530.05C560.633 514.685 563.812 508.857 566.726 495.611C571.494 473.359 588.448 439.981 605.403 419.318C626.595 393.622 630.304 396.006 618.913 428.59C613.35 444.219 605.932 458.524 591.362 480.512C585.269 489.784 589.243 487.399 608.581 470.18C618.383 461.438 635.072 448.458 645.669 441.305C671.63 423.821 704.743 411.9 704.743 419.848C704.743 424.351 673.219 446.868 637.721 467.531C594.011 493.227 590.833 495.082 590.833 497.466C590.833 498.525 594.011 498.261 598.25 496.671C619.708 488.194 675.603 482.896 675.603 489.254C675.603 493.757 643.549 507.267 622.357 511.771C609.906 514.42 597.455 515.215 587.654 514.155L572.819 512.566L553.216 535.348C542.619 548.063 533.347 559.454 533.083 560.779C532.553 562.103 537.586 560.779 544.474 557.865C561.958 550.447 584.21 545.149 606.197 543.03C627.125 540.911 630.304 543.295 618.118 552.037C595.071 568.196 561.428 578.793 533.347 579.058C520.102 579.058 519.307 579.587 511.89 590.449C500.764 607.138 490.167 625.946 490.167 629.39C490.167 631.244 492.022 631.774 494.936 630.715C515.069 623.032 574.938 612.436 578.647 616.145C581.826 619.324 557.984 633.894 542.089 638.662C534.937 640.781 518.513 642.636 506.062 642.636C483.545 642.636 483.015 642.9 479.571 650.053C473.213 663.828 463.677 688.73 463.677 691.908C463.677 694.028 474.008 690.319 490.962 682.107C521.427 667.272 544.474 662.504 547.388 670.186C552.686 684.226 508.976 705.684 472.683 707.008L457.319 707.538L447.782 740.652C432.682 793.898 419.437 823.568 398.509 851.913C391.622 861.45 385.529 869.397 385.264 869.927C384.204 871.781 355.594 855.887 336.521 843.171C310.825 825.687 271.618 787.54 250.161 759.195C231.087 734.029 207.51 688.465 197.709 658.265C184.463 617.204 181.549 596.806 181.549 545.944C181.549 495.082 184.728 474.154 197.974 433.623C238.505 308.851 345.528 215.868 476.922 190.967C511.095 184.344 569.905 184.344 604.078 190.967C735.472 215.868 842.495 308.851 883.026 433.623C896.272 474.154 899.451 495.082 899.451 545.944C899.451 582.501 898.126 598.926 894.417 615.88C878.788 687.935 849.383 743.301 799.58 794.958C769.911 825.952 738.122 849.794 702.094 867.808C680.901 878.404 639.841 894.298 633.483 894.298C632.423 894.298 628.979 891.649 626.065 888.47Z" fill="url(#paint1_linear_19_14)"/>
<rect x="10" y="10" width="1060" height="1060" rx="530" stroke="#09A291" stroke-width="20"/>
<defs>
<linearGradient id="paint0_linear_19_14" x1="540" y1="0" x2="540" y2="1080" gradientUnits="userSpaceOnUse">
<stop stop-color="#00D8C1"/>
<stop offset="1" stop-color="#008476"/>
</linearGradient>
<linearGradient id="paint1_linear_19_14" x1="540.5" y1="186" x2="540.5" y2="894.298" gradientUnits="userSpaceOnUse">
<stop stop-color="white"/>
<stop offset="1" stop-color="white"/>
</linearGradient>
</defs>
</svg>
